SplineFontDB: 3.2
FontName: Icons
FullName: Icons
FamilyName: Icons
Weight: Black
Copyright: 
Version: 332
ItalicAngle: 0
UnderlinePosition: -182
UnderlineWidth: 25
Ascent: 448
Descent: 64
InvalidEm: 0
sfntRevision: 0x014c0000
LayerCount: 2
Layer: 0 1 "Back" 1
Layer: 1 1 "Fore" 0
XUID: [1021 98 1998124304 21540]
StyleMap: 0x0000
FSType: 0
OS2Version: 4
OS2_WeightWidthSlopeOnly: 0
OS2_UseTypoMetrics: 1
CreationTime: 1601909348
ModificationTime: 1717519748
PfmFamily: 17
TTFWeight: 900
TTFWidth: 5
LineGap: 0
VLineGap: 0
Panose: 2 0 5 3 0 0 0 0 0 0
OS2TypoAscent: 448
OS2TypoAOffset: 0
OS2TypoDescent: -64
OS2TypoDOffset: 0
OS2TypoLinegap: 46
OS2WinAscent: 460
OS2WinAOffset: 0
OS2WinDescent: 84
OS2WinDOffset: 0
HheadAscent: 448
HheadAOffset: 0
HheadDescent: -64
HheadDOffset: 0
OS2SubXSize: 332
OS2SubYSize: 358
OS2SubXOff: 0
OS2SubYOff: 71
OS2SupXSize: 332
OS2SupYSize: 358
OS2SupXOff: 0
OS2SupYOff: 245
OS2StrikeYSize: 25
OS2StrikeYPos: 132
OS2CapHeight: 421
OS2XHeight: 314
OS2Vendor: 'PfEd'
OS2CodePages: 00000001.00000000
OS2UnicodeRanges: 00000000.00000000.00000000.00000000
MarkAttachClasses: 1
DEI: 91125
ShortTable: maxp 16
  1
  0
  67
  242
  13
  0
  0
  2
  0
  1
  1
  0
  64
  0
  0
  0
EndShort
LangName: 1033 "" "" "" "FontForge 2.0 : Icons : 2-11-2020"
GaspTable: 1 65535 2 0
Encoding: UnicodeBmp
UnicodeInterp: none
NameList: AGL For New Fonts
DisplaySize: -48
AntiAlias: 1
FitToEm: 0
WinInfo: 57 19 14
BeginPrivate: 0
EndPrivate
BeginChars: 65539 75

StartChar: exclam
Encoding: 33 33 3
Width: 399
GlyphClass: 2
Flags: W
LayerCount: 2
Fore
SplineSet
130 152 m 1,0,-1
 29 166 l 1,1,-1
 30 153 l 2,2,3
 32 136 32 136 40 115 c 0,4,5
 51 84 51 84 70 63 c 0,6,7
 80 51 80 51 91 42 c 0,8,9
 99 36 99 36 101 35 c 0,10,11
 101 34 101 34 104 32 c 0,12,13
 108 30 108 30 113 27 c 0,14,15
 130 16 130 16 136 16 c 2,16,-1
 146 12 l 2,17,18
 155 9 155 9 156 10 c 128,-1,19
 157 11 157 11 159 20 c 0,20,21
 161 34 161 34 161 36 c 2,22,-1
 164 55 l 1,23,-1
 172 107 l 1,24,25
 166 109 166 109 150 125 c 128,-1,26
 134 141 134 141 130 152 c 1,0,-1
214 68 m 1,27,-1
 215 73 l 2,28,29
 217 87 217 87 218 101 c 0,30,31
 218 104 218 104 222 105 c 0,32,33
 231 107 231 107 243 116.5 c 128,-1,34
 255 126 255 126 260 134 c 0,35,36
 262 139 262 139 277 138 c 0,37,38
 280 138 280 138 296 136 c 2,39,-1
 341 130 l 1,40,-1
 343 130 l 1,41,-1
 348 130 l 1,42,-1
 354 130 l 2,43,44
 356 130 356 130 359 129 c 2,45,-1
 364 128 l 2,46,47
 365 127 365 127 364 126 c 2,48,-1
 364 124 l 1,49,-1
 363 119 l 2,50,51
 362 116 362 116 362 115 c 0,52,53
 360 109 360 109 352.5 95 c 128,-1,54
 345 81 345 81 344 81 c 128,-1,55
 343 81 343 81 343 77 c 0,56,57
 343 76 343 76 342 74.5 c 128,-1,58
 341 73 341 73 341 74 c 0,59,60
 339 76 339 76 339 73 c 128,-1,61
 339 70 339 70 325.5 56 c 128,-1,62
 312 42 312 42 299 34 c 0,63,64
 297 32 297 32 295 30.5 c 128,-1,65
 293 29 293 29 293 28 c 1,66,67
 292 29 292 29 279 22 c 0,68,69
 249 7 249 7 222 5 c 0,70,71
 205 3 205 3 207 5 c 2,72,-1
 209 20 l 1,73,-1
 214 68 l 1,27,-1
86 212 m 1,74,-1
 71 215 l 2,75,76
 68 215 68 215 62.5 216 c 128,-1,77
 57 217 57 217 52.5 217.5 c 128,-1,78
 48 218 48 218 46 218 c 0,79,80
 36 220 36 220 35 220.5 c 128,-1,81
 34 221 34 221 37 226 c 2,82,-1
 40 232 l 2,83,84
 40 234 40 234 43 243 c 2,85,-1
 47 251 l 2,86,87
 47 253 47 253 55.5 266.5 c 128,-1,88
 64 280 64 280 68 283 c 0,89,90
 88 307 88 307 111 321 c 0,91,92
 137 336 137 336 143 336 c 0,93,94
 146 336 146 336 152.5 339 c 128,-1,95
 159 342 159 342 171 343 c 2,96,-1
 182 345 l 1,97,-1
 190 345 l 2,98,99
 197 346 197 346 197 341 c 128,-1,100
 197 336 197 336 193 312 c 2,101,-1
 191 303 l 2,102,103
 192 302 192 302 189 278 c 2,104,-1
 188 265 l 2,105,106
 186 253 186 253 186 251 c 2,107,-1
 185 245 l 2,108,109
 185 240 185 240 182 239 c 0,110,111
 172 236 172 236 160.5 228.5 c 128,-1,112
 149 221 149 221 149 218 c 128,-1,113
 149 215 149 215 147 215 c 128,-1,114
 145 215 145 215 143 210.5 c 128,-1,115
 141 206 141 206 136 207 c 0,116,117
 133 207 133 207 122 209 c 2,118,-1
 112 210 l 2,119,120
 110 210 110 210 107.5 210.5 c 128,-1,121
 105 211 105 211 99 211 c 2,122,-1
 91 211 l 1,123,-1
 86 212 l 1,74,-1
242 301 m 2,124,125
 243 302 243 302 245 324 c 0,126,127
 247 337 247 337 247 338 c 0,128,129
 249 339 249 339 262.5 333.5 c 128,-1,130
 276 328 276 328 288 322 c 0,131,132
 309 309 309 309 329 286 c 128,-1,133
 349 263 349 263 358 241 c 0,134,135
 360 234 360 234 365 223 c 0,136,137
 368 217 368 217 369 198.5 c 128,-1,138
 370 180 370 180 368 179 c 128,-1,139
 366 178 366 178 355 179 c 0,140,141
 353 180 353 180 346 181 c 128,-1,142
 339 182 339 182 337 182 c 2,143,-1
 322 184 l 2,144,145
 295 187 295 187 276 190 c 2,146,-1
 274 190 l 1,147,-1
 272 190 l 2,148,149
 270 190 270 190 264 203 c 0,150,151
 255 220 255 220 239 231 c 0,152,153
 236 233 236 233 235.5 236 c 128,-1,154
 235 239 235 239 237 254 c 2,155,-1
 242 301 l 2,124,125
237 254 m 1,156,-1
 242 301 l 1,157,-1
 238 274 l 1,158,-1
 237 254 l 1,156,-1
EndSplineSet
Validated: 37
EndChar

StartChar: numbersign
Encoding: 35 35 4
Width: 402
GlyphClass: 2
Flags: W
LayerCount: 2
Fore
SplineSet
336 185 m 1,0,-1
 368 155 l 2,1,2
 374 149 374 149 372 139.5 c 128,-1,3
 370 130 370 130 360 128 c 2,4,-1
 318 117 l 1,5,-1
 330 76 l 2,6,7
 332 67 332 67 326 60 c 128,-1,8
 320 53 320 53 310 56 c 2,9,-1
 268 68 l 1,10,-1
 258 26 l 2,11,12
 256 17 256 17 246 14 c 2,13,-1
 242 14 l 2,14,15
 236 14 236 14 232 19 c 2,16,-1
 202 50 l 1,17,-1
 170 19 l 2,18,19
 164 12 164 12 156 14 c 0,20,21
 146 17 146 17 144 26 c 2,22,-1
 134 68 l 1,23,-1
 92 56 l 2,24,25
 82 53 82 53 76 60 c 128,-1,26
 70 67 70 67 72 76 c 2,27,-1
 84 117 l 1,28,-1
 42 128 l 2,29,30
 32 130 32 130 30 139.5 c 128,-1,31
 28 149 28 149 34 155 c 2,32,-1
 66 185 l 1,33,-1
 34 215 l 2,34,35
 28 222 28 222 31 231 c 128,-1,36
 34 240 34 240 42 242 c 2,37,-1
 84 253 l 1,38,-1
 72 294 l 2,39,40
 70 304 70 304 76 310 c 0,41,42
 82 317 82 317 92 314 c 2,43,-1
 134 303 l 1,44,-1
 144 344 l 2,45,46
 146 354 146 354 155 356.5 c 128,-1,47
 164 359 164 359 170 352 c 2,48,-1
 202 321 l 1,49,-1
 232 352 l 2,50,51
 238 358 238 358 247 356 c 128,-1,52
 256 354 256 354 258 344 c 2,53,-1
 268 303 l 1,54,-1
 310 314 l 2,55,56
 320 317 320 317 326 310 c 0,57,58
 332 304 332 304 330 294 c 2,59,-1
 318 253 l 1,60,-1
 360 242 l 2,61,62
 370 240 370 240 372 231 c 128,-1,63
 374 222 374 222 368 215 c 2,64,-1
 336 185 l 1,0,-1
EndSplineSet
Validated: 33
EndChar

StartChar: parenleft
Encoding: 40 40 5
Width: 348
GlyphClass: 2
Flags: W
LayerCount: 2
Fore
SplineSet
314 102 m 2,0,1
 320 96 320 96 320 85 c 0,2,3
 320 76 320 76 314 68 c 2,4,-1
 280 35 l 2,5,6
 272 28 272 28 263 28 c 128,-1,7
 254 28 254 28 246 35 c 2,8,-1
 174 108 l 1,9,-1
 102 35 l 2,10,11
 96 28 96 28 86 28 c 128,-1,12
 76 28 76 28 68 35 c 2,13,-1
 34 68 l 2,14,15
 28 76 28 76 28 85.5 c 128,-1,16
 28 95 28 95 34 102 c 2,17,-1
 108 174 l 1,18,-1
 34 247 l 2,19,20
 28 253 28 253 28 263 c 128,-1,21
 28 273 28 273 34 280 c 2,22,-1
 68 314 l 2,23,24
 76 321 76 321 86 321 c 128,-1,25
 96 321 96 321 102 314 c 2,26,-1
 174 241 l 1,27,-1
 246 314 l 2,28,29
 254 321 254 321 263 321 c 128,-1,30
 272 321 272 321 280 314 c 2,31,-1
 314 280 l 2,32,33
 320 273 320 273 320 263 c 128,-1,34
 320 253 320 253 314 247 c 2,35,-1
 242 174 l 1,36,-1
 314 102 l 2,0,1
EndSplineSet
Validated: 1
EndChar

StartChar: parenright
Encoding: 41 41 6
Width: 417
GlyphClass: 2
Flags: W
LayerCount: 2
Fore
SplineSet
383 273 m 2,0,1
 390 266 390 266 390 257 c 128,-1,2
 390 248 390 248 383 241 c 2,3,-1
 182 40 l 2,4,5
 175 33 175 33 166 33 c 128,-1,6
 157 33 157 33 150 40 c 2,7,-1
 34 156 l 2,8,9
 27 163 27 163 27 172 c 128,-1,10
 27 181 27 181 34 189 c 2,11,-1
 65 220 l 2,12,13
 71 227 71 227 80.5 227 c 128,-1,14
 90 227 90 227 97 220 c 2,15,-1
 166 151 l 1,16,-1
 319 305 l 2,17,18
 327 312 327 312 336.5 312 c 128,-1,19
 346 312 346 312 352 305 c 2,20,-1
 383 273 l 2,0,1
EndSplineSet
Validated: 1
EndChar

StartChar: asterisk
Encoding: 42 42 7
Width: 429
GlyphClass: 2
Flags: W
LayerCount: 2
Fore
SplineSet
22.5 236.5 m 128,-1,1
 27 252 27 252 64 252 c 2,2,-1
 157 252 l 1,3,-1
 186 337 l 1,4,-1
 186 338 l 1,5,6
 194 361 194 361 204 369 c 128,-1,7
 214 377 214 377 224 369 c 128,-1,8
 234 361 234 361 242 338 c 1,9,-1
 242 337 l 1,10,-1
 271 252 l 1,11,-1
 364 252 l 2,12,13
 388 252 388 252 399 244.5 c 128,-1,14
 410 237 410 237 405 225 c 128,-1,15
 400 213 400 213 380 199 c 2,16,-1
 378 198 l 1,17,-1
 305 145 l 1,18,-1
 333 60 l 1,19,-1
 334 59 l 1,20,21
 345 24 345 24 332 14.5 c 128,-1,22
 319 5 319 5 289 26 c 1,23,-1
 288 27 l 1,24,-1
 287 28 l 1,25,-1
 214 80 l 1,26,-1
 140 27 l 1,27,-1
 139 26 l 1,28,29
 109 5 109 5 95.5 14.5 c 128,-1,30
 82 24 82 24 94 59 c 1,31,-1
 94 60 l 1,32,-1
 122 145 l 1,33,-1
 49 198 l 1,34,-1
 48 199 l 1,35,0
 18 221 18 221 22.5 236.5 c 128,-1,1
EndSplineSet
Validated: 33
EndChar

StartChar: plus
Encoding: 43 43 8
Width: 422
GlyphClass: 2
Flags: W
LayerCount: 2
Fore
SplineSet
254 205 m 2,0,-1
 254 191 l 2,1,2
 254 188 254 188 252 185.5 c 128,-1,3
 250 183 250 183 247 184 c 2,4,-1
 197 184 l 1,5,-1
 197 134 l 2,6,7
 197 131 197 131 195 128.5 c 128,-1,8
 193 126 193 126 190 127 c 2,9,-1
 176 127 l 2,10,11
 173 127 173 127 170.5 129 c 128,-1,12
 168 131 168 131 169 134 c 2,13,-1
 169 184 l 1,14,-1
 119 184 l 2,15,16
 116 184 116 184 114 186 c 128,-1,17
 112 188 112 188 111 191 c 2,18,-1
 111 205 l 2,19,20
 111 208 111 208 113.5 210 c 128,-1,21
 116 212 116 212 119 212 c 2,22,-1
 169 212 l 1,23,-1
 169 262 l 2,24,25
 169 265 169 265 171 267 c 128,-1,26
 173 269 173 269 176 269 c 2,27,-1
 190 269 l 2,28,29
 193 269 193 269 195 267 c 128,-1,30
 197 265 197 265 197 262 c 2,31,-1
 197 212 l 1,32,-1
 247 212 l 2,33,34
 250 212 250 212 252 210 c 128,-1,35
 254 208 254 208 254 205 c 2,0,-1
283 198 m 0,36,37
 283 239 283 239 253.5 268.5 c 128,-1,38
 224 298 224 298 183 298.5 c 128,-1,39
 142 299 142 299 112 269 c 128,-1,40
 82 239 82 239 83 198.5 c 128,-1,41
 84 158 84 158 112.5 127.5 c 128,-1,42
 141 97 141 97 183 98 c 128,-1,43
 225 99 225 99 253 127 c 128,-1,44
 281 155 281 155 283 198 c 0,36,37
397 12 m 0,45,46
 397 1 397 1 389 -7.5 c 128,-1,47
 381 -16 381 -16 369 -16 c 128,-1,48
 357 -16 357 -16 349 -8 c 2,49,-1
 272 69 l 1,50,51
 232 41 232 41 183 41 c 0,52,53
 151 41 151 41 122 53.5 c 128,-1,54
 93 66 93 66 72 87 c 128,-1,55
 51 108 51 108 38 137 c 128,-1,56
 25 166 25 166 25.5 198.5 c 128,-1,57
 26 231 26 231 38 259 c 128,-1,58
 50 287 50 287 71.5 309 c 128,-1,59
 93 331 93 331 121.5 343 c 128,-1,60
 150 355 150 355 183 355.5 c 128,-1,61
 216 356 216 356 244 343 c 128,-1,62
 272 330 272 330 294.5 309.5 c 128,-1,63
 317 289 317 289 328 259 c 128,-1,64
 339 229 339 229 340 198 c 0,65,66
 340 149 340 149 313 109 c 1,67,-1
 389 33 l 2,68,69
 397 24 397 24 397 12 c 0,45,46
EndSplineSet
Validated: 33
EndChar

StartChar: hyphen
Encoding: 45 45 9
Width: 423
GlyphClass: 2
Flags: W
LayerCount: 2
Fore
SplineSet
254 205 m 2,0,-1
 254 191 l 2,1,2
 254 188 254 188 252 185.5 c 128,-1,3
 250 183 250 183 247 184 c 2,4,-1
 118 184 l 2,5,6
 115 184 115 184 113 186 c 128,-1,7
 111 188 111 188 111 191 c 2,8,-1
 111 205 l 2,9,10
 111 208 111 208 113.5 210 c 128,-1,11
 116 212 116 212 118 212 c 2,12,-1
 247 212 l 2,13,14
 250 212 250 212 252 210 c 128,-1,15
 254 208 254 208 254 205 c 2,0,-1
282 198 m 0,16,17
 282 239 282 239 252.5 268.5 c 128,-1,18
 223 298 223 298 182.5 298.5 c 128,-1,19
 142 299 142 299 112 269 c 128,-1,20
 82 239 82 239 82.5 198.5 c 128,-1,21
 83 158 83 158 111.5 127.5 c 128,-1,22
 140 97 140 97 182.5 98 c 128,-1,23
 225 99 225 99 253 127 c 128,-1,24
 281 155 281 155 282 198 c 0,16,17
397 12 m 0,25,26
 397 1 397 1 388.5 -7.5 c 128,-1,27
 380 -16 380 -16 368 -16 c 128,-1,28
 356 -16 356 -16 348 -8 c 2,29,-1
 272 69 l 1,30,31
 232 41 232 41 182 41 c 0,32,33
 150 41 150 41 121 53.5 c 128,-1,34
 92 66 92 66 71 87 c 128,-1,35
 50 108 50 108 37.5 137 c 128,-1,36
 25 166 25 166 25.5 198.5 c 128,-1,37
 26 231 26 231 38 259 c 128,-1,38
 50 287 50 287 71.5 309 c 128,-1,39
 93 331 93 331 121.5 343 c 128,-1,40
 150 355 150 355 182.5 355.5 c 128,-1,41
 215 356 215 356 243 343 c 128,-1,42
 271 330 271 330 293.5 309.5 c 128,-1,43
 316 289 316 289 327 259 c 128,-1,44
 338 229 338 229 340 198 c 0,45,46
 340 149 340 149 312 109 c 1,47,-1
 388 33 l 2,48,49
 397 24 397 24 397 12 c 0,25,26
EndSplineSet
Validated: 33
EndChar

StartChar: period
Encoding: 46 46 10
Width: 405
GlyphClass: 2
Flags: W
LayerCount: 2
Fore
SplineSet
368 139 m 2,0,-1
 368 138 l 1,1,2
 353 78 353 78 307.5 40.5 c 128,-1,3
 262 3 262 3 201 3 c 0,4,5
 169 3 169 3 138.5 15.5 c 128,-1,6
 108 28 108 28 84 51 c 1,7,-1
 55 22 l 2,8,9
 51 18 51 18 45 18 c 128,-1,10
 39 18 39 18 35 22.5 c 128,-1,11
 31 27 31 27 31 32 c 2,12,-1
 31 132 l 2,13,14
 31 138 31 138 35 142.5 c 128,-1,15
 39 147 39 147 45 147 c 2,16,-1
 145 147 l 2,17,18
 151 147 151 147 155 142.5 c 128,-1,19
 159 138 159 138 159 132.5 c 128,-1,20
 159 127 159 127 155 122 c 2,21,-1
 124 91 l 1,22,23
 140 77 140 77 160 69 c 128,-1,24
 180 61 180 61 202 61 c 0,25,26
 232 61 232 61 258 75.5 c 128,-1,27
 284 90 284 90 299 115 c 0,28,29
 302 119 302 119 311 141 c 0,30,31
 313 147 313 147 318 147 c 2,32,-1
 361 147 l 2,33,34
 364 147 364 147 366 144.5 c 128,-1,35
 368 142 368 142 368 139 c 2,0,-1
373 318 m 2,36,-1
 373 218 l 2,37,38
 373 212 373 212 369 207.5 c 128,-1,39
 365 203 365 203 359 203 c 2,40,-1
 259 203 l 2,41,42
 253 203 253 203 249 207.5 c 128,-1,43
 245 212 245 212 245 217.5 c 128,-1,44
 245 223 245 223 249 228 c 2,45,-1
 280 259 l 1,46,47
 247 289 247 289 202 289 c 0,48,49
 172 289 172 289 146 274.5 c 128,-1,50
 120 260 120 260 105 235 c 0,51,52
 102 231 102 231 93 209 c 0,53,54
 91 203 91 203 86 203 c 2,55,-1
 42 203 l 2,56,57
 39 203 39 203 36.5 205.5 c 128,-1,58
 34 208 34 208 35 211 c 2,59,-1
 35 212 l 1,60,61
 49 272 49 272 95 309.5 c 128,-1,62
 141 347 141 347 202 347 c 0,63,64
 235 347 235 347 265.5 334.5 c 128,-1,65
 296 322 296 322 320 299 c 1,66,-1
 349 328 l 2,67,68
 353 332 353 332 359 332 c 128,-1,69
 365 332 365 332 369.5 327.5 c 128,-1,70
 374 323 374 323 373 318 c 2,36,-1
EndSplineSet
Validated: 1
EndChar

StartChar: slash
Encoding: 47 47 11
Width: 405
GlyphClass: 2
Flags: W
LayerCount: 2
Fore
SplineSet
32 175 m 128,-1,1
 32 140 32 140 45 108.5 c 128,-1,2
 58 77 58 77 81 54 c 128,-1,3
 104 31 104 31 136 17 c 128,-1,4
 168 3 168 3 202 3 c 0,5,6
 240 3 240 3 275 19.5 c 128,-1,7
 310 36 310 36 334 65 c 0,8,9
 336 68 336 68 336 70.5 c 128,-1,10
 336 73 336 73 334 75 c 2,11,-1
 304 106 l 2,12,13
 302 108 302 108 298 108 c 128,-1,14
 294 108 294 108 292 105 c 0,15,16
 276 84 276 84 253 72.5 c 128,-1,17
 230 61 230 61 202 61 c 0,18,19
 180 61 180 61 159 70 c 128,-1,20
 138 79 138 79 122 94 c 128,-1,21
 106 109 106 109 97 130.5 c 128,-1,22
 88 152 88 152 88 175 c 128,-1,23
 88 198 88 198 97 219.5 c 128,-1,24
 106 241 106 241 121 256 c 128,-1,25
 136 271 136 271 158 280 c 128,-1,26
 180 289 180 289 202 289 c 128,-1,27
 224 289 224 289 244 281 c 128,-1,28
 264 273 264 273 280 259 c 1,29,-1
 250 228 l 2,30,31
 242 221 242 221 246 212.5 c 128,-1,32
 250 204 250 204 260 203 c 2,33,-1
 360 203 l 2,34,35
 366 203 366 203 370 207.5 c 128,-1,36
 374 212 374 212 374 218 c 2,37,-1
 374 318 l 2,38,39
 374 327 374 327 365 331 c 128,-1,40
 356 335 356 335 350 328 c 2,41,-1
 320 299 l 1,42,43
 296 322 296 322 266 334.5 c 128,-1,44
 236 347 236 347 202 347 c 128,-1,45
 168 347 168 347 136 333 c 128,-1,46
 104 319 104 319 81 296 c 128,-1,47
 58 273 58 273 45 241.5 c 128,-1,0
 32 210 32 210 32 175 c 128,-1,1
EndSplineSet
Validated: 41
EndChar

StartChar: one
Encoding: 49 49 12
Width: 417
GlyphClass: 2
Flags: W
LayerCount: 2
Fore
SplineSet
245 131 m 1,0,1
 225 122 225 122 197 102.5 c 128,-1,2
 169 83 169 83 160 65 c 0,3,4
 157 66 157 66 150 68 c 128,-1,5
 143 70 143 70 139.5 70.5 c 128,-1,6
 136 71 136 71 130 73 c 128,-1,7
 124 75 124 75 120 76 c 128,-1,8
 116 77 116 77 111 79 c 128,-1,9
 106 81 106 81 102 83 c 2,10,-1
 94 87 l 1,11,12
 98 105 98 105 107.5 125 c 128,-1,13
 117 145 117 145 123 150 c 1,14,-1
 236 164 l 2,15,16
 237 161 237 161 239 157.5 c 128,-1,17
 241 154 241 154 243.5 145.5 c 128,-1,18
 246 137 246 137 245 131 c 1,0,1
150 54 m 1,19,20
 149 50 149 50 142.5 42 c 128,-1,21
 136 34 136 34 125 24 c 128,-1,22
 114 14 114 14 100 5 c 128,-1,23
 86 -4 86 -4 68 -9 c 128,-1,24
 50 -14 50 -14 33 -11 c 0,25,26
 7 -4 7 -4 54 15 c 2,27,-1
 65 19 l 2,28,29
 66 21 66 21 77 45.5 c 128,-1,30
 88 70 88 70 90 77 c 1,31,32
 112 65 112 65 150 54 c 1,19,20
128 162 m 1,33,34
 126 251 126 251 119 261 c 0,35,36
 118 263 118 263 126 268.5 c 128,-1,37
 134 274 134 274 148.5 281 c 128,-1,38
 163 288 163 288 181 296.5 c 128,-1,39
 199 305 199 305 217.5 314 c 128,-1,40
 236 323 236 323 251.5 330.5 c 128,-1,41
 267 338 267 338 277.5 344.5 c 128,-1,42
 288 351 288 351 289 354 c 2,43,-1
 291 357 l 1,44,45
 292 352 292 352 283 325 c 0,46,47
 279 312 279 312 276 310 c 128,-1,48
 273 308 273 308 251 299 c 0,49,50
 178 269 178 269 178 268 c 1,51,-1
 179 268 l 2,52,53
 185 270 185 270 225.5 282 c 128,-1,54
 266 294 266 294 273 297 c 1,55,-1
 272 290 l 2,56,57
 271 283 271 283 270.5 280.5 c 128,-1,58
 270 278 270 278 268 270 c 128,-1,59
 266 262 266 262 264 258 c 128,-1,60
 262 254 262 254 258 246.5 c 128,-1,61
 254 239 254 239 250 234.5 c 128,-1,62
 246 230 246 230 239 224 c 128,-1,63
 232 218 232 218 224.5 213.5 c 128,-1,64
 217 209 217 209 207 205 c 128,-1,65
 197 201 197 201 185 199 c 1,66,67
 203 196 203 196 214.5 188 c 128,-1,68
 226 180 226 180 229 175 c 0,69,70
 230 174 230 174 205 170.5 c 128,-1,71
 180 167 180 167 154 164 c 2,72,-1
 128 162 l 1,33,34
147 29 m 1,73,-1
 148 29 l 1,74,-1
 147 29 l 1,73,-1
322 191 m 0,75,76
 345 199 345 199 361.5 193 c 128,-1,77
 378 187 378 187 386.5 175 c 128,-1,78
 395 163 395 163 394 151 c 0,79,80
 393 137 393 137 379 130.5 c 128,-1,81
 365 124 365 124 353 130 c 0,82,83
 352 131 352 131 351.5 131 c 128,-1,84
 351 131 351 131 348.5 132.5 c 128,-1,85
 346 134 346 134 344 136 c 2,86,-1
 340 140 l 2,87,88
 338 142 338 142 337 144.5 c 128,-1,89
 336 147 336 147 336.5 149.5 c 128,-1,90
 337 152 337 152 339 154 c 1,91,92
 335 152 335 152 335 146.5 c 128,-1,93
 335 141 335 141 339 136 c 0,94,95
 344 131 344 131 347.5 128 c 128,-1,96
 351 125 351 125 354 122 c 2,97,-1
 354 110 l 2,98,99
 354 105 354 105 353 102 c 2,100,-1
 353 99 l 1,101,102
 349 78 349 78 327 64 c 0,103,104
 313 53 313 53 291.5 48.5 c 128,-1,105
 270 44 270 44 240.5 42 c 128,-1,106
 211 40 211 40 195 36 c 0,107,108
 158 28 158 28 113 5 c 0,109,110
 109 3 109 3 96 -3 c 1,111,112
 106 3 106 3 115 9.5 c 128,-1,113
 124 16 124 16 133 21 c 128,-1,114
 142 26 142 26 157 33 c 0,115,116
 173 41 173 41 200 49 c 0,117,118
 215 53 215 53 232 56.5 c 128,-1,119
 249 60 249 60 260 62 c 128,-1,120
 271 64 271 64 281.5 67 c 128,-1,121
 292 70 292 70 298.5 73.5 c 128,-1,122
 305 77 305 77 309 83.5 c 128,-1,123
 313 90 313 90 313 100 c 0,124,125
 314 110 314 110 310.5 122.5 c 128,-1,126
 307 135 307 135 304 144.5 c 128,-1,127
 301 154 301 154 300 163 c 128,-1,128
 299 172 299 172 304 179 c 128,-1,129
 309 186 309 186 322 191 c 0,75,76
291 89 m 0,130,131
 291 98 291 98 288.5 109 c 128,-1,132
 286 120 286 120 283 128 c 128,-1,133
 280 136 280 136 279 144 c 128,-1,134
 278 152 278 152 281.5 158.5 c 128,-1,135
 285 165 285 165 295 169 c 1,136,137
 294 160 294 160 301 138 c 0,138,139
 309 113 309 113 308 100 c 0,140,141
 307 89 307 89 302 83 c 128,-1,142
 297 77 297 77 286 73 c 1,143,144
 290 81 290 81 291 89 c 0,130,131
EndSplineSet
Validated: 33
EndChar

StartChar: two
Encoding: 50 50 13
Width: 423
GlyphClass: 2
Flags: W
LayerCount: 2
Fore
SplineSet
140 95 m 1,0,-1
 126 78 l 1,1,-1
 154 88 l 1,2,-1
 128 10 l 1,3,-1
 116 42 l 1,4,-1
 30 -12 l 1,5,-1
 70 66 l 1,6,-1
 20 75 l 1,7,-1
 124 114 l 1,8,-1
 118 90 l 1,9,-1
 140 95 l 1,0,-1
144 137 m 1,10,-1
 180 101 l 1,11,-1
 168 89 l 1,12,-1
 170 84 l 1,13,-1
 166 80 l 1,14,-1
 122 123 l 1,15,-1
 126 127 l 1,16,-1
 132 125 l 1,17,-1
 144 137 l 1,10,-1
150 136 m 1,18,-1
 214 201 l 1,19,-1
 244 173 l 1,20,-1
 178 107 l 1,21,-1
 150 136 l 1,18,-1
214 206 m 1,22,-1
 240 233 l 1,23,-1
 276 198 l 1,24,-1
 248 172 l 1,25,-1
 214 206 l 1,22,-1
334 278 m 1,26,-1
 322 266 l 1,27,-1
 310 278 l 1,28,-1
 320 290 l 1,29,-1
 334 278 l 1,26,-1
306 279 m 1,30,-1
 296 267 l 1,31,-1
 282 280 l 1,32,-1
 294 291 l 1,33,-1
 306 279 l 1,30,-1
320 317 m 1,34,-1
 332 304 l 1,35,-1
 320 293 l 1,36,-1
 308 305 l 1,37,-1
 320 317 l 1,34,-1
334 277 m 1,38,-1
 346 289 l 1,39,-1
 358 277 l 1,40,-1
 348 265 l 1,41,-1
 334 277 l 1,38,-1
334 252 m 1,42,-1
 322 240 l 1,43,-1
 310 252 l 1,44,-1
 322 264 l 1,45,-1
 334 252 l 1,42,-1
276 276 m 1,46,-1
 276 279 l 1,47,-1
 322 234 l 1,48,-1
 318 232 l 2,49,50
 314 229 314 229 312 228 c 128,-1,51
 310 227 310 227 304 224.5 c 128,-1,52
 298 222 298 222 296 220.5 c 128,-1,53
 294 219 294 219 290 216.5 c 128,-1,54
 286 214 286 214 282 211 c 128,-1,55
 278 208 278 208 274 204 c 1,56,57
 272 207 272 207 266 212.5 c 128,-1,58
 260 218 260 218 255 223 c 2,59,-1
 246 232 l 1,60,61
 254 239 254 239 258 246 c 128,-1,62
 262 253 262 253 267 262.5 c 128,-1,63
 272 272 272 272 276 276 c 1,46,-1
320 322 m 1,64,-1
 368 348 l 1,65,-1
 392 324 l 1,66,-1
 364 277 l 1,67,-1
 320 322 l 1,64,-1
388 358 m 1,68,-1
 402 344 l 1,69,-1
 394 331 l 1,70,-1
 376 351 l 1,71,-1
 388 358 l 1,68,-1
EndSplineSet
Validated: 1
EndChar

StartChar: three
Encoding: 51 51 14
Width: 339
GlyphClass: 2
Flags: W
LayerCount: 2
Fore
SplineSet
299 176 m 0,0,1
 312 151 312 151 313.5 119.5 c 128,-1,2
 315 88 315 88 306 64 c 0,3,4
 301 50 301 50 292 37.5 c 128,-1,5
 283 25 283 25 269 13.5 c 128,-1,6
 255 2 255 2 234.5 -5 c 128,-1,7
 214 -12 214 -12 190 -12 c 0,8,9
 156 -12 156 -12 131 -7.5 c 128,-1,10
 106 -3 106 -3 92 4 c 128,-1,11
 78 11 78 11 67 22 c 128,-1,12
 56 33 56 33 51 42.5 c 128,-1,13
 46 52 46 52 39 66 c 128,-1,14
 32 80 32 80 26 88 c 1,15,16
 29 89 29 89 34 85.5 c 128,-1,17
 39 82 39 82 43 79 c 2,18,-1
 46 76 l 1,19,20
 37 95 37 95 34.5 110 c 128,-1,21
 32 125 32 125 35 135 c 128,-1,22
 38 145 38 145 44 155 c 0,23,24
 52 166 52 166 56.5 174 c 128,-1,25
 61 182 61 182 65 192.5 c 128,-1,26
 69 203 69 203 66.5 210.5 c 128,-1,27
 64 218 64 218 55 222 c 1,28,29
 60 223 60 223 63 223 c 128,-1,30
 66 223 66 223 72 222 c 128,-1,31
 78 221 78 221 82 218 c 128,-1,32
 86 215 86 215 90.5 207.5 c 128,-1,33
 95 200 95 200 96 189 c 0,34,35
 100 165 100 165 106 166 c 0,36,37
 106 168 106 168 106.5 171.5 c 128,-1,38
 107 175 107 175 108.5 186.5 c 128,-1,39
 110 198 110 198 113.5 209 c 128,-1,40
 117 220 117 220 124 234.5 c 128,-1,41
 131 249 131 249 140.5 261.5 c 128,-1,42
 150 274 150 274 152 288 c 128,-1,43
 154 302 154 302 150.5 312.5 c 128,-1,44
 147 323 147 323 140 334 c 128,-1,45
 133 345 133 345 128 349 c 2,46,-1
 120 358 l 1,47,48
 122 357 122 357 129 354 c 0,49,50
 145 347 145 347 154.5 342 c 128,-1,51
 164 337 164 337 181 323 c 128,-1,52
 198 309 198 309 207.5 292 c 128,-1,53
 217 275 217 275 222.5 245 c 128,-1,54
 228 215 228 215 224 179 c 0,55,56
 223 144 223 144 239 142 c 0,57,58
 250 140 250 140 259 154 c 0,59,60
 265 163 265 163 265 173 c 0,61,62
 264 193 264 193 272.5 210.5 c 128,-1,63
 281 228 281 228 291 231 c 1,64,65
 286 202 286 202 299 176 c 0,0,1
EndSplineSet
Validated: 33
EndChar

StartChar: four
Encoding: 52 52 15
Width: 429
GlyphClass: 2
Flags: W
LayerCount: 2
Fore
SplineSet
302 351 m 1,0,1
 304 347 304 347 304 341 c 128,-1,2
 304 335 304 335 306 318 c 128,-1,3
 308 301 308 301 306 292 c 1,4,5
 278 312 278 312 248 319 c 1,6,7
 254 327 254 327 268 335.5 c 128,-1,8
 282 344 282 344 292 347 c 2,9,-1
 302 351 l 1,0,1
212 39 m 0,10,11
 212 48 212 48 221 55 c 128,-1,12
 230 62 230 62 241 62.5 c 128,-1,13
 252 63 252 63 262 53 c 0,14,15
 266 49 266 49 266 40.5 c 128,-1,16
 266 32 266 32 265 23.5 c 128,-1,17
 264 15 264 15 261 7 c 128,-1,18
 258 -1 258 -1 256 -7 c 2,19,-1
 254 -12 l 1,20,21
 250 -8 250 -8 243 -1.5 c 128,-1,22
 236 5 236 5 224 18.5 c 128,-1,23
 212 32 212 32 212 39 c 0,10,11
96 133 m 0,24,25
 106 133 106 133 113 125 c 128,-1,26
 120 117 120 117 122 106 c 128,-1,27
 124 95 124 95 114 83 c 0,28,29
 110 80 110 80 102 79 c 128,-1,30
 94 78 94 78 85 79 c 128,-1,31
 76 80 76 80 68 81.5 c 128,-1,32
 60 83 60 83 54 85 c 2,33,-1
 48 87 l 1,34,35
 50 89 50 89 52 92 c 128,-1,36
 54 95 54 95 61 103 c 128,-1,37
 68 111 68 111 74 117 c 128,-1,38
 80 123 80 123 86 128 c 128,-1,39
 92 133 92 133 96 133 c 0,24,25
342 216 m 0,40,41
 334 216 334 216 327 223.5 c 128,-1,42
 320 231 320 231 319 241.5 c 128,-1,43
 318 252 318 252 328 263 c 0,44,45
 336 268 336 268 349 267 c 128,-1,46
 362 266 362 266 374 262 c 2,47,-1
 388 258 l 1,48,49
 384 253 384 253 378 246 c 128,-1,50
 372 239 372 239 360 227.5 c 128,-1,51
 348 216 348 216 342 216 c 0,40,41
226 312 m 0,52,53
 226 303 226 303 218 296 c 128,-1,54
 210 289 210 289 200 288.5 c 128,-1,55
 190 288 190 288 180 298 c 0,56,57
 174 306 174 306 176 319.5 c 128,-1,58
 178 333 178 333 182 345 c 2,59,-1
 186 358 l 1,60,61
 190 354 190 354 197 348 c 128,-1,62
 204 342 204 342 215 329.5 c 128,-1,63
 226 317 226 317 226 312 c 0,52,53
362 175 m 1,64,-1
 362 176 l 1,65,66
 358 182 358 182 351 188.5 c 128,-1,67
 344 195 344 195 323 211.5 c 128,-1,68
 302 228 302 228 278 241.5 c 128,-1,69
 254 255 254 255 214 269 c 128,-1,70
 174 283 174 283 128 290 c 1,71,72
 148 304 148 304 172 311 c 1,73,74
 172 300 172 300 176 295 c 0,75,76
 188 284 188 284 200 284 c 128,-1,77
 212 284 212 284 221 292 c 128,-1,78
 230 300 230 300 230 311 c 0,79,80
 232 313 232 313 230 317 c 1,81,82
 288 311 288 311 326 267 c 1,83,-1
 325 267 l 1,84,-1
 324 266 l 1,85,-1
 324 265 l 1,86,87
 310 250 310 250 318 231 c 0,88,89
 320 222 320 222 327 217 c 128,-1,90
 334 212 334 212 342 211 c 0,91,92
 346 211 346 211 354 217 c 1,93,94
 362 196 362 196 362 175 c 1,64,-1
78 197 m 0,95,96
 72 197 72 197 64 203 c 128,-1,97
 56 209 56 209 49 217.5 c 128,-1,98
 42 226 42 226 36 235 c 2,99,-1
 26 250 l 1,100,-1
 22 256 l 1,101,102
 26 256 26 256 31 257 c 128,-1,103
 36 258 36 258 48 259.5 c 128,-1,104
 60 261 60 261 71 262 c 128,-1,105
 82 263 82 263 92 262 c 128,-1,106
 102 261 102 261 104 257 c 0,107,108
 114 249 114 249 114 235.5 c 128,-1,109
 114 222 114 222 105 210.5 c 128,-1,110
 96 199 96 199 78 197 c 0,95,96
352 138 m 0,111,112
 362 138 362 138 375 122.5 c 128,-1,113
 388 107 388 107 398 93 c 2,114,-1
 406 78 l 1,115,116
 398 76 398 76 386 74.5 c 128,-1,117
 374 73 374 73 351 73 c 128,-1,118
 328 73 328 73 324 79 c 0,119,120
 318 85 318 85 316 94.5 c 128,-1,121
 314 104 314 104 317 113.5 c 128,-1,122
 320 123 320 123 329 130 c 128,-1,123
 338 137 338 137 352 138 c 0,111,112
217 222 m 128,-1,125
 232 222 232 222 242 211 c 128,-1,126
 252 200 252 200 252 185 c 0,127,128
 252 171 252 171 242 160.5 c 128,-1,129
 232 150 232 150 217 150 c 128,-1,130
 202 150 202 150 191 160.5 c 128,-1,131
 180 171 180 171 180 185 c 0,132,133
 180 200 180 200 191 211 c 128,-1,124
 202 222 202 222 217 222 c 128,-1,125
216 141 m 128,-1,135
 234 141 234 141 248 154 c 128,-1,136
 262 167 262 167 262 185 c 0,137,138
 262 204 262 204 248 217 c 128,-1,139
 234 230 234 230 216 230 c 128,-1,140
 198 230 198 230 185 217 c 128,-1,141
 172 204 172 204 172 185 c 0,142,143
 172 167 172 167 185 154 c 128,-1,134
 198 141 198 141 216 141 c 128,-1,135
310 118 m 0,144,145
 304 106 304 106 306 93.5 c 128,-1,146
 308 81 308 81 316 73 c 0,147,148
 320 70 320 70 324 68 c 1,149,150
 314 59 314 59 308 55 c 0,151,152
 306 57 306 57 303 61 c 128,-1,153
 300 65 300 65 288 76 c 128,-1,154
 276 87 276 87 262 97.5 c 128,-1,155
 248 108 248 108 226 121 c 128,-1,156
 204 134 204 134 181 143.5 c 128,-1,157
 158 153 158 153 128 160.5 c 128,-1,158
 98 168 98 168 66 169 c 1,159,160
 66 180 66 180 68 191 c 1,161,162
 74 188 74 188 78 188 c 2,163,-1
 80 188 l 2,164,165
 110 191 110 191 120 218 c 0,166,167
 124 230 124 230 122 243 c 128,-1,168
 120 256 120 256 112 264 c 2,169,-1
 104 268 l 1,170,-1
 105 269 l 1,171,-1
 106 270 l 2,172,173
 110 270 110 270 115 269.5 c 128,-1,174
 120 269 120 269 138 266.5 c 128,-1,175
 156 264 156 264 174 259 c 128,-1,176
 192 254 192 254 217 244.5 c 128,-1,177
 242 235 242 235 265 222.5 c 128,-1,178
 288 210 288 210 312 190 c 128,-1,179
 336 170 336 170 356 146 c 1,180,181
 354 147 354 147 352 147 c 2,182,-1
 350 147 l 2,183,184
 336 146 336 146 325 138.5 c 128,-1,185
 314 131 314 131 310 118 c 0,144,145
128 -11 m 1,186,187
 128 -10 128 -10 127 -8.5 c 128,-1,188
 126 -7 126 -7 125 -2 c 128,-1,189
 124 3 124 3 122 7.5 c 128,-1,190
 120 12 120 12 119 18.5 c 128,-1,191
 118 25 118 25 117 30.5 c 128,-1,192
 116 36 116 36 116 41.5 c 128,-1,193
 116 47 116 47 118 51 c 1,194,195
 144 29 144 29 180 21 c 1,196,197
 176 11 176 11 163 3 c 128,-1,198
 150 -5 150 -5 138 -8 c 2,199,-1
 128 -11 l 1,186,187
224 99 m 0,200,201
 262 75 262 75 292 43 c 1,202,203
 282 37 282 37 270 32 c 1,204,205
 272 48 272 48 266 56 c 0,206,207
 256 67 256 67 240 67 c 0,208,209
 228 67 228 67 218 58.5 c 128,-1,210
 208 50 208 50 208 39 c 0,211,212
 206 33 206 33 216 21 c 1,213,-1
 214 21 l 2,214,215
 204 21 204 21 194 22 c 0,216,217
 192 23 192 23 191 23 c 2,218,-1
 190 23 l 1,219,220
 140 32 140 32 106 69 c 0,221,222
 104 70 104 70 103 71.5 c 128,-1,223
 102 73 102 73 100 74 c 1,224,225
 112 75 112 75 116 80 c 1,226,-1
 118 80 l 1,227,228
 132 97 132 97 124 117 c 0,229,230
 120 126 120 126 112 131.5 c 128,-1,231
 104 137 104 137 96 137 c 128,-1,232
 88 137 88 137 74 123 c 1,233,234
 68 139 68 139 68 151 c 1,235,236
 78 151 78 151 91 149 c 128,-1,237
 104 147 104 147 136 138 c 128,-1,238
 168 129 168 129 198 114 c 1,239,-1
 198 113 l 1,240,241
 214 106 214 106 224 99 c 0,200,201
EndSplineSet
Validated: 37
EndChar

StartChar: five
Encoding: 53 53 16
Width: 388
GlyphClass: 2
Flags: W
LayerCount: 2
Fore
SplineSet
151 212 m 1,0,1
 175 200 175 200 206 169.5 c 128,-1,2
 237 139 237 139 245 118 c 1,3,-1
 191 63 l 1,4,-1
 97 157 l 1,5,6
 131 190 131 190 151 212 c 1,0,1
197 261 m 1,7,-1
 177 204 l 1,8,-1
 145 308 l 1,9,-1
 197 261 l 1,7,-1
367 358 m 1,10,-1
 319 222 l 1,11,-1
 343 226 l 1,12,-1
 321 172 l 1,13,-1
 233 155 l 1,14,-1
 243 197 l 1,15,-1
 227 190 l 1,16,-1
 237 219 l 1,17,-1
 185 203 l 1,18,-1
 225 306 l 1,19,-1
 239 283 l 1,20,-1
 367 358 l 1,10,-1
247 145 m 1,21,-1
 321 162 l 1,22,-1
 339 128 l 1,23,-1
 247 145 l 1,21,-1
93 133 m 1,24,-1
 93 151 l 1,25,-1
 185 60 l 1,26,-1
 167 58 l 1,27,-1
 93 133 l 1,24,-1
33 90 m 1,28,-1
 47 104 l 1,29,-1
 137 13 l 1,30,-1
 123 -1 l 1,31,-1
 33 90 l 1,28,-1
91 -12 m 1,32,-1
 73 6 l 1,33,-1
 91 23 l 1,34,-1
 109 6 l 1,35,-1
 91 -12 l 1,32,-1
113 45 m 1,36,-1
 141 74 l 1,37,-1
 159 56 l 1,38,-1
 131 27 l 1,39,-1
 113 45 l 1,36,-1
133 82 m 1,40,-1
 105 53 l 1,41,-1
 87 71 l 1,42,-1
 115 100 l 1,43,-1
 133 82 l 1,40,-1
65 14 m 1,44,-1
 49 32 l 1,45,-1
 65 49 l 1,46,-1
 83 32 l 1,47,-1
 65 14 l 1,44,-1
21 58 m 1,48,-1
 39 75 l 1,49,-1
 57 58 l 1,50,-1
 39 40 l 1,51,-1
 21 58 l 1,48,-1
107 108 m 1,52,-1
 79 80 l 1,53,-1
 61 97 l 1,54,-1
 89 125 l 1,55,-1
 107 108 l 1,52,-1
EndSplineSet
Validated: 1
EndChar

StartChar: six
Encoding: 54 54 17
Width: 420
GlyphClass: 2
Flags: W
LayerCount: 2
Fore
SplineSet
294 135 m 1,0,1
 314 142 314 142 335.5 137.5 c 128,-1,2
 357 133 357 133 372 117 c 0,3,4
 386 103 386 103 391.5 84 c 128,-1,5
 397 65 397 65 392 47 c 1,6,-1
 347 92 l 1,7,-1
 291 35 l 1,8,-1
 336 -10 l 1,9,10
 317 -14 317 -14 298 -9 c 128,-1,11
 279 -4 279 -4 265 10 c 0,12,13
 250 26 250 26 245 47.5 c 128,-1,14
 240 69 240 69 247 88 c 1,15,-1
 124 211 l 1,16,17
 105 204 105 204 83.5 209 c 128,-1,18
 62 214 62 214 47 229 c 0,19,20
 33 243 33 243 28 262 c 128,-1,21
 23 281 23 281 26 300 c 1,22,-1
 72 254 l 1,23,-1
 128 311 l 1,24,-1
 83 356 l 1,25,26
 102 360 102 360 120.5 355 c 128,-1,27
 139 350 139 350 154 336 c 0,28,29
 169 320 169 320 173.5 299 c 128,-1,30
 178 278 178 278 172 258 c 1,31,-1
 294 135 l 1,0,1
154 165 m 1,32,-1
 201 118 l 1,33,-1
 172 88 l 1,34,35
 178 69 178 69 173.5 47.5 c 128,-1,36
 169 26 169 26 154 10 c 0,37,38
 139 -4 139 -4 120.5 -9 c 128,-1,39
 102 -14 102 -14 83 -10 c 1,40,-1
 128 35 l 1,41,-1
 72 92 l 1,42,-1
 26 47 l 1,43,44
 23 66 23 66 28 84.5 c 128,-1,45
 33 103 33 103 47 117 c 0,46,47
 62 133 62 133 83.5 137.5 c 128,-1,48
 105 142 105 142 124 135 c 1,49,-1
 154 165 l 1,32,-1
265 181 m 1,50,-1
 218 229 l 1,51,-1
 247 258 l 1,52,53
 240 278 240 278 245 299 c 128,-1,54
 250 320 250 320 265 336 c 0,55,56
 280 350 280 350 298.5 355 c 128,-1,57
 317 360 317 360 336 356 c 1,58,-1
 291 311 l 1,59,-1
 347 254 l 1,60,-1
 392 300 l 1,61,62
 397 281 397 281 391.5 262 c 128,-1,63
 386 243 386 243 372 229 c 0,64,65
 357 214 357 214 335.5 209 c 128,-1,66
 314 204 314 204 294 211 c 1,67,-1
 265 181 l 1,50,-1
EndSplineSet
Validated: 33
EndChar

StartChar: seven
Encoding: 55 55 18
Width: 431
GlyphClass: 2
Flags: W
LayerCount: 2
Fore
SplineSet
380 118 m 1,0,-1
 380 228 l 1,1,-1
 291 228 l 1,2,-1
 279 228 l 1,3,-1
 270 228 l 1,4,-1
 270 236 l 1,5,-1
 270 249 l 1,6,-1
 270 337 l 1,7,-1
 161 337 l 1,8,-1
 161 249 l 1,9,-1
 161 236 l 1,10,-1
 161 228 l 1,11,-1
 152 228 l 1,12,-1
 140 228 l 1,13,-1
 51 228 l 1,14,-1
 51 118 l 1,15,-1
 140 118 l 1,16,-1
 152 118 l 1,17,-1
 161 118 l 1,18,-1
 161 110 l 1,19,-1
 161 97 l 1,20,-1
 161 9 l 1,21,-1
 270 9 l 1,22,-1
 270 97 l 1,23,-1
 270 110 l 1,24,-1
 270 118 l 1,25,-1
 279 118 l 1,26,-1
 291 118 l 1,27,-1
 380 118 l 1,0,-1
291 249 m 1,28,-1
 400 249 l 1,29,-1
 400 97 l 1,30,-1
 291 97 l 1,31,-1
 291 -12 l 1,32,-1
 140 -12 l 1,33,-1
 140 97 l 1,34,-1
 31 97 l 1,35,-1
 31 249 l 1,36,-1
 140 249 l 1,37,-1
 140 358 l 1,38,-1
 291 358 l 1,39,-1
 291 249 l 1,28,-1
64 130 m 1,40,-1
 64 196 l 1,41,-1
 367 196 l 1,42,-1
 367 130 l 1,43,-1
 291 130 l 1,44,-1
 279 130 l 1,45,-1
 270 130 l 1,46,-1
 258 130 l 1,47,-1
 258 118 l 1,48,-1
 258 110 l 1,49,-1
 258 97 l 1,50,-1
 258 21 l 1,51,-1
 173 21 l 1,52,-1
 173 97 l 1,53,-1
 173 110 l 1,54,-1
 173 118 l 1,55,-1
 173 130 l 1,56,-1
 161 130 l 1,57,-1
 152 130 l 1,58,-1
 140 130 l 1,59,-1
 64 130 l 1,40,-1
EndSplineSet
Validated: 1
EndChar

StartChar: eight
Encoding: 56 56 19
Width: 428
GlyphClass: 2
Flags: W
LayerCount: 2
Fore
SplineSet
214 1 m 128,-1,1
 261 1 261 1 300.5 24 c 128,-1,2
 340 47 340 47 363 86.5 c 128,-1,3
 386 126 386 126 386 173 c 128,-1,4
 386 220 386 220 363 259.5 c 128,-1,5
 340 299 340 299 300.5 322 c 128,-1,6
 261 345 261 345 214 345 c 128,-1,7
 167 345 167 345 127.5 322 c 128,-1,8
 88 299 88 299 65 259.5 c 128,-1,9
 42 220 42 220 42 173 c 128,-1,10
 42 126 42 126 65 86.5 c 128,-1,11
 88 47 88 47 127.5 24 c 128,-1,0
 167 1 167 1 214 1 c 128,-1,1
214 358 m 128,-1,13
 290 358 290 358 344.5 303.5 c 128,-1,14
 399 249 399 249 399 173 c 128,-1,15
 399 97 399 97 344.5 42.5 c 128,-1,16
 290 -12 290 -12 214 -12 c 128,-1,17
 138 -12 138 -12 83.5 42.5 c 128,-1,18
 29 97 29 97 29 173 c 128,-1,19
 29 249 29 249 83.5 303.5 c 128,-1,12
 138 358 138 358 214 358 c 128,-1,13
220 44 m 1,20,21
 270 46 270 46 305.5 81.5 c 128,-1,22
 341 117 341 117 343 167 c 1,23,-1
 269 167 l 1,24,25
 267 148 267 148 253 134 c 128,-1,26
 239 120 239 120 220 118 c 1,27,-1
 220 44 l 1,20,21
220 167 m 1,28,-1
 220 122 l 1,29,30
 237 124 237 124 250 137 c 128,-1,31
 263 150 263 150 265 167 c 1,32,-1
 220 167 l 1,28,-1
220 224 m 1,33,-1
 220 179 l 1,34,-1
 265 179 l 1,35,36
 263 196 263 196 250 209 c 128,-1,37
 237 222 237 222 220 224 c 1,33,-1
220 302 m 1,38,-1
 220 228 l 1,39,40
 239 226 239 226 253 212 c 128,-1,41
 267 198 267 198 269 179 c 1,42,-1
 343 179 l 1,43,44
 341 229 341 229 305.5 264.5 c 128,-1,45
 270 300 270 300 220 302 c 1,38,-1
208 228 m 1,46,-1
 208 302 l 1,47,48
 158 300 158 300 122.5 264.5 c 128,-1,49
 87 229 87 229 85 179 c 1,50,-1
 159 179 l 1,51,52
 161 198 161 198 175 212 c 128,-1,53
 189 226 189 226 208 228 c 1,46,-1
208 179 m 1,54,-1
 208 224 l 1,55,56
 191 222 191 222 178 209 c 128,-1,57
 165 196 165 196 163 179 c 1,58,-1
 208 179 l 1,54,-1
208 122 m 1,59,-1
 208 167 l 1,60,-1
 163 167 l 1,61,62
 165 150 165 150 178 137 c 128,-1,63
 191 124 191 124 208 122 c 1,59,-1
208 44 m 1,64,-1
 208 118 l 1,65,66
 189 120 189 120 175 134 c 128,-1,67
 161 148 161 148 159 167 c 1,68,-1
 85 167 l 1,69,70
 87 117 87 117 122.5 81.5 c 128,-1,71
 158 46 158 46 208 44 c 1,64,-1
214 314 m 128,-1,73
 252 314 252 314 284.5 295 c 128,-1,74
 317 276 317 276 336 243.5 c 128,-1,75
 355 211 355 211 355 173 c 128,-1,76
 355 135 355 135 336 102.5 c 128,-1,77
 317 70 317 70 284.5 51 c 128,-1,78
 252 32 252 32 214 32 c 128,-1,79
 176 32 176 32 143.5 51 c 128,-1,80
 111 70 111 70 92 102.5 c 128,-1,81
 73 135 73 135 73 173 c 128,-1,82
 73 211 73 211 92 243.5 c 128,-1,83
 111 276 111 276 143.5 295 c 128,-1,72
 176 314 176 314 214 314 c 128,-1,73
EndSplineSet
Validated: 1
EndChar

StartChar: nine
Encoding: 57 57 20
Width: 362
GlyphClass: 2
Flags: W
LayerCount: 2
Fore
SplineSet
290 191 m 128,-1,1
 292 202 292 202 278 218 c 0,2,3
 273 224 273 224 272 224 c 2,4,-1
 266 224 l 1,5,-1
 259 224 l 1,6,-1
 253 224 l 1,7,-1
 121 224 l 2,8,9
 120 224 120 224 120 223 c 0,10,11
 103 206 103 206 103 194 c 0,12,13
 104 183 104 183 116 171 c 0,14,15
 119 166 119 166 121 164 c 128,-1,16
 123 162 123 162 128 159.5 c 128,-1,17
 133 157 133 157 137 157 c 0,18,19
 142 157 142 157 151 162 c 0,20,21
 154 164 154 164 162 170 c 128,-1,22
 170 176 170 176 176 179 c 128,-1,23
 182 182 182 182 188 184 c 0,24,25
 192 185 192 185 196 185 c 128,-1,26
 200 185 200 185 204 184 c 128,-1,27
 208 183 208 183 211 182 c 128,-1,28
 214 181 214 181 218 178.5 c 128,-1,29
 222 176 222 176 224 175 c 128,-1,30
 226 174 226 174 230 171 c 128,-1,31
 234 168 234 168 235 167 c 0,32,33
 250 156 250 156 256 157 c 0,34,35
 266 157 266 157 277 170 c 0,36,0
 288 180 288 180 290 191 c 128,-1,1
251 56 m 0,37,38
 257 65 257 65 259 71 c 0,39,40
 257 77 257 77 250.5 81 c 128,-1,41
 244 85 244 85 238 86 c 2,42,-1
 232 87 l 1,43,44
 207 87 207 87 191 89 c 2,45,-1
 190 89 l 2,46,47
 181 90 181 90 174 89.5 c 128,-1,48
 167 89 167 89 161 87.5 c 128,-1,49
 155 86 155 86 151 83.5 c 128,-1,50
 147 81 147 81 144 78.5 c 128,-1,51
 141 76 141 76 139 73.5 c 128,-1,52
 137 71 137 71 136 70 c 2,53,-1
 135 68 l 1,54,55
 138 60 138 60 149 47 c 0,56,57
 149 46 149 46 151 44 c 2,58,-1
 154 41 l 2,59,60
 156 39 156 39 157 39 c 2,61,-1
 160 39 l 1,62,-1
 164 39 l 1,63,-1
 167 39 l 1,64,-1
 237 39 l 1,65,66
 243 45 243 45 251 56 c 0,37,38
104 50 m 2,67,-1
 100 53 l 2,68,69
 97 57 97 57 96 58 c 128,-1,70
 95 59 95 59 93 61 c 0,71,72
 91 64 91 64 91 65 c 0,73,74
 90 68 90 68 82 104 c 2,75,-1
 67 177 l 1,76,-1
 60 212 l 2,77,78
 60 213 60 213 59.5 215.5 c 128,-1,79
 59 218 59 218 59 219 c 0,80,81
 50 272 50 272 89 313 c 0,82,83
 129 356 129 356 190 358 c 0,84,85
 224 359 224 359 252 348 c 128,-1,86
 280 337 280 337 299 318 c 0,87,88
 346 270 346 270 334 221 c 2,89,-1
 332 213 l 1,90,-1
 299 64 l 2,91,92
 297 57 297 57 290 50 c 0,93,94
 289 49 289 49 287.5 47 c 128,-1,95
 286 45 286 45 285 44 c 128,-1,96
 284 43 284 43 281 39.5 c 128,-1,97
 278 36 278 36 276 34 c 0,98,99
 269 25 269 25 255 10.5 c 128,-1,100
 241 -4 241 -4 234 -11 c 1,101,-1
 178 -11 l 1,102,-1
 159 -11 l 2,103,104
 158 -11 158 -11 152 -3 c 0,105,106
 145 6 145 6 127.5 24.5 c 128,-1,107
 110 43 110 43 104 50 c 2,67,-1
EndSplineSet
Validated: 33
EndChar

StartChar: colon
Encoding: 58 58 21
Width: 389
GlyphClass: 2
Flags: W
LayerCount: 2
Fore
SplineSet
356 109 m 2,0,-1
 356 28 l 2,1,2
 356 21 356 21 351 16 c 128,-1,3
 346 11 346 11 338 11 c 2,4,-1
 258 11 l 2,5,6
 246 11 246 11 242 21.5 c 128,-1,7
 238 32 238 32 246 40 c 2,8,-1
 272 66 l 1,9,-1
 194 143 l 1,10,-1
 118 66 l 1,11,-1
 144 40 l 2,12,13
 152 32 152 32 147 21.5 c 128,-1,14
 142 11 142 11 132 11 c 2,15,-1
 50 11 l 2,16,17
 44 11 44 11 39 16 c 128,-1,18
 34 21 34 21 34 28 c 2,19,-1
 34 109 l 2,20,21
 34 120 34 120 44 124.5 c 128,-1,22
 54 129 54 129 62 121 c 2,23,-1
 88 95 l 1,24,-1
 166 172 l 1,25,-1
 88 249 l 1,26,-1
 62 223 l 2,27,28
 54 215 54 215 44 219.5 c 128,-1,29
 34 224 34 224 34 235 c 2,30,-1
 34 316 l 2,31,32
 34 323 34 323 39 328 c 128,-1,33
 44 333 44 333 50 333 c 2,34,-1
 132 333 l 2,35,36
 142 333 142 333 147 322.5 c 128,-1,37
 152 312 152 312 144 304 c 2,38,-1
 118 278 l 1,39,-1
 194 201 l 1,40,-1
 272 278 l 1,41,-1
 246 304 l 2,42,43
 238 312 238 312 242 322.5 c 128,-1,44
 246 333 246 333 258 333 c 2,45,-1
 338 333 l 2,46,47
 346 333 346 333 351 328 c 128,-1,48
 356 323 356 323 356 316 c 2,49,-1
 356 235 l 2,50,51
 356 224 356 224 345 219.5 c 128,-1,52
 334 215 334 215 326 223 c 2,53,-1
 300 249 l 1,54,-1
 224 172 l 1,55,-1
 300 95 l 1,56,-1
 326 121 l 2,57,58
 334 129 334 129 345 124.5 c 128,-1,59
 356 120 356 120 356 109 c 2,0,-1
EndSplineSet
Validated: 33
EndChar

StartChar: semicolon
Encoding: 59 59 22
Width: 415
GlyphClass: 2
Flags: W
LayerCount: 2
Fore
SplineSet
167 169 m 2,0,1
 174 169 174 169 179 164 c 128,-1,2
 184 159 184 159 184 152 c 2,3,-1
 184 71 l 2,4,5
 184 59 184 59 173.5 55 c 128,-1,6
 163 51 163 51 155 59 c 2,7,-1
 133 82 l 1,8,-1
 61 11 l 2,9,10
 58 8 58 8 53 8 c 128,-1,11
 48 8 48 8 45 11 c 2,12,-1
 27 29 l 2,13,14
 23 33 23 33 23 37.5 c 128,-1,15
 23 42 23 42 27 46 c 2,16,-1
 98 117 l 1,17,-1
 74 139 l 2,18,19
 66 147 66 147 70.5 158 c 128,-1,20
 75 169 75 169 87 169 c 2,21,-1
 167 169 l 2,0,1
248 215 m 2,22,23
 241 215 241 215 236 220 c 128,-1,24
 231 225 231 225 231 232 c 2,25,-1
 231 313 l 2,26,27
 231 324 231 324 241.5 328.5 c 128,-1,28
 252 333 252 333 260 325 c 2,29,-1
 282 301 l 1,30,-1
 354 373 l 2,31,32
 357 376 357 376 362 376 c 128,-1,33
 367 376 367 376 370 373 c 2,34,-1
 388 355 l 2,35,36
 392 351 392 351 392 346.5 c 128,-1,37
 392 342 392 342 388 338 c 2,38,-1
 317 267 l 1,39,-1
 341 244 l 2,40,41
 349 237 349 237 344.5 226 c 128,-1,42
 340 215 340 215 328 215 c 2,43,-1
 248 215 l 2,22,23
317 117 m 1,44,-1
 388 46 l 2,45,46
 392 42 392 42 392 37.5 c 128,-1,47
 392 33 392 33 388 29 c 2,48,-1
 370 11 l 2,49,50
 362 3 362 3 354 11 c 2,51,-1
 282 82 l 1,52,-1
 260 59 l 2,53,54
 252 51 252 51 241.5 55 c 128,-1,55
 231 59 231 59 231 71 c 2,56,-1
 231 152 l 2,57,58
 231 159 231 159 236 164 c 128,-1,59
 241 169 241 169 248 169 c 2,60,-1
 328 169 l 2,61,62
 340 169 340 169 344.5 158 c 128,-1,63
 349 147 349 147 341 139 c 2,64,-1
 317 117 l 1,44,-1
155 325 m 2,65,66
 163 333 163 333 173.5 328.5 c 128,-1,67
 184 324 184 324 184 313 c 2,68,-1
 184 232 l 2,69,70
 184 225 184 225 179 220 c 128,-1,71
 174 215 174 215 167 215 c 2,72,-1
 87 215 l 2,73,74
 75 215 75 215 70.5 226 c 128,-1,75
 66 237 66 237 74 244 c 2,76,-1
 98 267 l 1,77,-1
 27 338 l 2,78,79
 23 342 23 342 23 346.5 c 128,-1,80
 23 351 23 351 27 355 c 2,81,-1
 45 373 l 2,82,83
 48 376 48 376 53 376 c 128,-1,84
 58 376 58 376 61 373 c 2,85,-1
 133 301 l 1,86,-1
 155 325 l 2,65,66
EndSplineSet
Validated: 33
EndChar

StartChar: less
Encoding: 60 60 23
Width: 423
GlyphClass: 2
Flags: W
LayerCount: 2
Fore
SplineSet
212 3 m 128,-1,1
 138 3 138 3 85 55.5 c 128,-1,2
 32 108 32 108 32 182 c 128,-1,3
 32 256 32 256 85 308.5 c 128,-1,4
 138 361 138 361 212 361 c 128,-1,5
 286 361 286 361 338 308.5 c 128,-1,6
 390 256 390 256 390 182 c 128,-1,7
 390 108 390 108 338 55.5 c 128,-1,0
 286 3 286 3 212 3 c 128,-1,1
130 170 m 2,8,-1
 228 73 l 2,9,10
 232 67 232 67 239 67 c 128,-1,11
 246 67 246 67 252 73 c 2,12,-1
 264 84 l 2,13,14
 270 90 270 90 270 97 c 128,-1,15
 270 104 270 104 264 109 c 2,16,-1
 190 182 l 1,17,-1
 264 255 l 2,18,19
 270 260 270 260 270 267.5 c 128,-1,20
 270 275 270 275 264 280 c 2,21,-1
 252 291 l 2,22,23
 246 297 246 297 239 297 c 128,-1,24
 232 297 232 297 228 291 c 2,25,-1
 130 194 l 2,26,27
 124 189 124 189 124 182 c 128,-1,28
 124 175 124 175 130 170 c 2,8,-1
EndSplineSet
Validated: 1
EndChar

StartChar: greater
Encoding: 62 62 24
Width: 423
GlyphClass: 2
Flags: W
LayerCount: 2
Fore
SplineSet
212 361 m 128,-1,1
 286 361 286 361 338 308.5 c 128,-1,2
 390 256 390 256 390 182 c 128,-1,3
 390 108 390 108 338 55.5 c 128,-1,4
 286 3 286 3 212 3 c 128,-1,5
 138 3 138 3 85 55.5 c 128,-1,6
 32 108 32 108 32 182 c 128,-1,7
 32 256 32 256 85 308.5 c 128,-1,0
 138 361 138 361 212 361 c 128,-1,1
294 194 m 2,8,-1
 196 291 l 2,9,10
 190 297 190 297 183 297 c 128,-1,11
 176 297 176 297 172 291 c 2,12,-1
 160 280 l 2,13,14
 154 274 154 274 154 267 c 128,-1,15
 154 260 154 260 160 255 c 2,16,-1
 232 182 l 1,17,-1
 160 109 l 2,18,19
 154 104 154 104 154 96.5 c 128,-1,20
 154 89 154 89 160 84 c 2,21,-1
 172 73 l 2,22,23
 176 67 176 67 183 67 c 128,-1,24
 190 67 190 67 196 73 c 2,25,-1
 294 170 l 2,26,27
 298 175 298 175 298 182 c 128,-1,28
 298 189 298 189 294 194 c 2,8,-1
EndSplineSet
Validated: 1
EndChar

StartChar: question
Encoding: 63 63 25
Width: 310
GlyphClass: 2
Flags: W
LayerCount: 2
Fore
SplineSet
155 385 m 0,0,1
 204 385 204 385 244.5 352 c 128,-1,2
 285 319 285 319 285 272 c 0,3,4
 285 248 285 248 275 230 c 128,-1,5
 265 212 265 212 251.5 202.5 c 128,-1,6
 238 193 238 193 224.5 185.5 c 128,-1,7
 211 178 211 178 201.5 170 c 128,-1,8
 192 162 192 162 192 154 c 2,9,-1
 192 150 l 2,10,11
 192 143 192 143 187 137.5 c 128,-1,12
 182 132 182 132 174 132 c 2,13,-1
 122 132 l 2,14,15
 114 132 114 132 109 137.5 c 128,-1,16
 104 143 104 143 104 150 c 2,17,-1
 104 157 l 2,18,19
 104 173 104 173 108.5 185.5 c 128,-1,20
 113 198 113 198 124.5 208 c 128,-1,21
 136 218 136 218 143 222.5 c 128,-1,22
 150 227 150 227 164 235 c 0,23,24
 184 246 184 246 192 254 c 128,-1,25
 200 262 200 262 200 273 c 0,26,27
 200 289 200 289 184 299 c 128,-1,28
 168 309 168 309 149 309 c 0,29,30
 135 309 135 309 124.5 304.5 c 128,-1,31
 114 300 114 300 106.5 293 c 128,-1,32
 99 286 99 286 88 273 c 0,33,34
 84 268 84 268 77 266.5 c 128,-1,35
 70 265 70 265 64 270 c 2,36,-1
 33 294 l 2,37,38
 27 298 27 298 26 305 c 128,-1,39
 25 312 25 312 29 318 c 0,40,41
 75 385 75 385 155 385 c 0,0,1
148 111 m 128,-1,43
 169 111 169 111 184 96 c 128,-1,44
 199 81 199 81 199 60 c 128,-1,45
 199 39 199 39 184 24 c 128,-1,46
 169 9 169 9 148 9 c 128,-1,47
 127 9 127 9 112 24 c 128,-1,48
 97 39 97 39 97 60 c 128,-1,49
 97 81 97 81 112 96 c 128,-1,42
 127 111 127 111 148 111 c 128,-1,43
EndSplineSet
Validated: 1
EndChar

StartChar: A
Encoding: 65 65 26
Width: 284
GlyphClass: 2
Flags: W
LayerCount: 2
Fore
SplineSet
254 299 m 2,0,-1
 134 181 l 1,1,-1
 254 62 l 2,2,3
 258 58 258 58 258 52 c 128,-1,4
 258 46 258 46 254 42 c 2,5,-1
 216 5 l 2,6,7
 212 1 212 1 206 1 c 128,-1,8
 200 1 200 1 196 5 c 2,9,-1
 30 171 l 2,10,11
 26 175 26 175 26 181 c 128,-1,12
 26 187 26 187 30 191 c 2,13,-1
 196 356 l 2,14,15
 200 360 200 360 206 360 c 128,-1,16
 212 360 212 360 216 356 c 2,17,-1
 254 319 l 2,18,19
 258 315 258 315 258 309 c 128,-1,20
 258 303 258 303 254 299 c 2,0,-1
EndSplineSet
Validated: 1
EndChar

StartChar: D
Encoding: 68 68 27
Width: 286
GlyphClass: 2
Flags: W
LayerCount: 2
Fore
SplineSet
255 171 m 2,0,-1
 89 5 l 2,1,2
 85 1 85 1 79 1 c 128,-1,3
 73 1 73 1 69 5 c 2,4,-1
 32 42 l 2,5,6
 27 46 27 46 27 52 c 128,-1,7
 27 58 27 58 32 62 c 2,8,-1
 150 181 l 1,9,-1
 32 299 l 2,10,11
 27 304 27 304 27 309.5 c 128,-1,12
 27 315 27 315 32 319 c 2,13,-1
 69 356 l 2,14,15
 73 360 73 360 79 360 c 128,-1,16
 85 360 85 360 89 356 c 2,17,-1
 255 191 l 2,18,19
 259 186 259 186 259 180.5 c 128,-1,20
 259 175 259 175 255 171 c 2,0,-1
EndSplineSet
Validated: 1
EndChar

StartChar: S
Encoding: 83 83 28
Width: 427
GlyphClass: 2
Flags: W
LayerCount: 2
Fore
SplineSet
214 357 m 0,0,1
 262 357 262 357 304 333 c 128,-1,2
 346 309 346 309 370 267 c 128,-1,3
 394 225 394 225 394 176 c 128,-1,4
 394 127 394 127 370 85 c 128,-1,5
 346 43 346 43 304 19 c 128,-1,6
 262 -5 262 -5 213 -5 c 128,-1,7
 164 -5 164 -5 122 19 c 128,-1,8
 80 43 80 43 56 85 c 128,-1,9
 32 127 32 127 32 176 c 128,-1,10
 32 225 32 225 56 267 c 128,-1,11
 80 309 80 309 122 333 c 128,-1,12
 164 357 164 357 214 357 c 0,0,1
266 162 m 0,13,14
 252 162 252 162 241 153 c 128,-1,15
 230 144 230 144 226 129 c 1,16,17
 214 135 214 135 200 130 c 1,18,19
 198 144 198 144 187 153 c 128,-1,20
 176 162 176 162 160 162 c 128,-1,21
 144 162 144 162 132 150 c 128,-1,22
 120 138 120 138 120 121 c 128,-1,23
 120 104 120 104 132 91.5 c 128,-1,24
 144 79 144 79 160 79 c 128,-1,25
 176 79 176 79 188 90 c 128,-1,26
 200 101 200 101 202 117 c 1,27,28
 214 125 214 125 226 116 c 1,29,30
 228 101 228 101 239 90 c 128,-1,31
 250 79 250 79 267 79 c 128,-1,32
 284 79 284 79 296 91.5 c 128,-1,33
 308 104 308 104 308 121 c 128,-1,34
 308 138 308 138 296 150 c 128,-1,35
 284 162 284 162 266 162 c 0,13,14
160 150 m 128,-1,37
 172 150 172 150 181 141.5 c 128,-1,38
 190 133 190 133 190 120.5 c 128,-1,39
 190 108 190 108 181 99.5 c 128,-1,40
 172 91 172 91 160 91 c 128,-1,41
 148 91 148 91 140 99.5 c 128,-1,42
 132 108 132 108 132 120.5 c 128,-1,43
 132 133 132 133 140 141.5 c 128,-1,36
 148 150 148 150 160 150 c 128,-1,37
266 150 m 128,-1,45
 278 150 278 150 287 141.5 c 128,-1,46
 296 133 296 133 296 120.5 c 128,-1,47
 296 108 296 108 287 99.5 c 128,-1,48
 278 91 278 91 266 91 c 128,-1,49
 254 91 254 91 246 99.5 c 128,-1,50
 238 108 238 108 238 120.5 c 128,-1,51
 238 133 238 133 246 141.5 c 128,-1,44
 254 150 254 150 266 150 c 128,-1,45
318 185 m 1,52,-1
 108 185 l 1,53,-1
 108 173 l 1,54,-1
 318 173 l 1,55,-1
 318 185 l 1,52,-1
252 269 m 2,56,57
 250 273 250 273 246 274.5 c 128,-1,58
 242 276 242 276 238 276 c 2,59,-1
 214 267 l 1,60,-1
 188 276 l 2,61,62
 184 276 184 276 180 274 c 128,-1,63
 176 272 176 272 174 268 c 2,64,-1
 148 197 l 1,65,-1
 280 197 l 1,66,-1
 252 269 l 2,56,57
EndSplineSet
Validated: 33
EndChar

StartChar: T
Encoding: 84 84 29
Width: 358
GlyphClass: 2
Flags: W
LayerCount: 2
Fore
SplineSet
47 32 m 2,0,-1
 47 264 l 1,1,-1
 311 264 l 1,2,-1
 311 32 l 2,3,4
 311 19 311 19 301.5 9 c 128,-1,5
 292 -1 292 -1 278 -1 c 2,6,-1
 80 -1 l 2,7,8
 66 -1 66 -1 56.5 9 c 128,-1,9
 47 19 47 19 47 32 c 2,0,-1
234 209 m 2,10,-1
 234 55 l 2,11,12
 234 50 234 50 237 47 c 128,-1,13
 240 44 240 44 245 44 c 128,-1,14
 250 44 250 44 253 47 c 128,-1,15
 256 50 256 50 256 55 c 2,16,-1
 256 209 l 2,17,18
 256 214 256 214 253 217 c 128,-1,19
 250 220 250 220 245 220 c 128,-1,20
 240 220 240 220 237 217 c 128,-1,21
 234 214 234 214 234 209 c 2,10,-1
168 209 m 2,22,-1
 168 55 l 2,23,24
 168 50 168 50 171 47 c 128,-1,25
 174 44 174 44 179 44 c 128,-1,26
 184 44 184 44 187 47 c 128,-1,27
 190 50 190 50 190 55 c 2,28,-1
 190 209 l 2,29,30
 190 214 190 214 187 217 c 128,-1,31
 184 220 184 220 179 220 c 128,-1,32
 174 220 174 220 171 217 c 128,-1,33
 168 214 168 214 168 209 c 2,22,-1
102 209 m 2,34,-1
 102 55 l 2,35,36
 102 50 102 50 105 47 c 128,-1,37
 108 44 108 44 113 44 c 128,-1,38
 118 44 118 44 121 47 c 128,-1,39
 124 50 124 50 124 55 c 2,40,-1
 124 209 l 2,41,42
 124 214 124 214 121 217 c 128,-1,43
 118 220 118 220 113 220 c 128,-1,44
 108 220 108 220 105 217 c 128,-1,45
 102 214 102 214 102 209 c 2,34,-1
323 331 m 2,46,47
 327 331 327 331 330.5 327.5 c 128,-1,48
 334 324 334 324 334 320 c 2,49,-1
 334 297 l 2,50,51
 334 293 334 293 330.5 289.5 c 128,-1,52
 327 286 327 286 323 286 c 2,53,-1
 35 286 l 2,54,55
 31 286 31 286 27.5 289.5 c 128,-1,56
 24 293 24 293 24 297 c 2,57,-1
 24 320 l 2,58,59
 24 324 24 324 27.5 327.5 c 128,-1,60
 31 331 31 331 35 331 c 2,61,-1
 118 331 l 1,62,-1
 124 344 l 2,63,64
 129 353 129 353 140 353 c 2,65,-1
 218 353 l 2,66,67
 229 353 229 353 234 344 c 2,68,-1
 240 331 l 1,69,-1
 323 331 l 2,46,47
EndSplineSet
Validated: 1
EndChar

StartChar: U
Encoding: 85 85 30
Width: 416
GlyphClass: 2
Flags: W
LayerCount: 2
Fore
SplineSet
373 310 m 2,0,1
 381 310 381 310 387.5 303 c 128,-1,2
 394 296 394 296 392 288 c 2,3,-1
 373 154 l 2,4,5
 372 146 372 146 367 142 c 128,-1,6
 362 138 362 138 354 138 c 2,7,-1
 137 138 l 1,8,-1
 140 118 l 1,9,-1
 335 118 l 2,10,11
 343 118 343 118 348.5 112 c 128,-1,12
 354 106 354 106 354 98 c 128,-1,13
 354 90 354 90 348.5 85 c 128,-1,14
 343 80 343 80 335 80 c 2,15,-1
 124 80 l 2,16,17
 115 80 115 80 107 90 c 0,18,19
 107 92 107 92 106 93 c 2,20,-1
 105 96 l 1,21,-1
 69 310 l 1,22,-1
 43 310 l 2,23,24
 35 310 35 310 29 315 c 128,-1,25
 23 320 23 320 23 328 c 128,-1,26
 23 336 23 336 29 342 c 128,-1,27
 35 348 35 348 43 348 c 2,28,-1
 86 348 l 2,29,30
 92 348 92 348 97.5 343 c 128,-1,31
 103 338 103 338 104 332 c 2,32,-1
 109 310 l 1,33,-1
 373 310 l 2,0,1
351 272 m 1,34,-1
 277 272 l 1,35,-1
 277 234 l 1,36,-1
 345 234 l 1,37,-1
 351 272 l 1,34,-1
258 272 m 1,38,-1
 201 272 l 1,39,-1
 201 234 l 1,40,-1
 258 234 l 1,41,-1
 258 272 l 1,38,-1
258 214 m 1,42,-1
 201 214 l 1,43,-1
 201 176 l 1,44,-1
 258 176 l 1,45,-1
 258 214 l 1,42,-1
182 272 m 1,46,-1
 114 272 l 1,47,-1
 121 232 l 1,48,-1
 124 234 l 1,49,-1
 182 234 l 1,50,-1
 182 272 l 1,46,-1
124 214 m 1,51,-1
 131 176 l 1,52,-1
 182 176 l 1,53,-1
 182 214 l 1,54,-1
 124 214 l 1,51,-1
277 176 m 1,55,-1
 338 176 l 1,56,-1
 343 214 l 1,57,-1
 277 214 l 1,58,-1
 277 176 l 1,55,-1
124 32 m 128,-1,60
 124 60 124 60 153 60 c 128,-1,61
 182 60 182 60 182 32 c 128,-1,62
 182 4 182 4 153 4 c 128,-1,59
 124 4 124 4 124 32 c 128,-1,60
297 32 m 128,-1,64
 297 60 297 60 325 60 c 0,65,66
 354 60 354 60 354 32 c 128,-1,67
 354 4 354 4 325 4 c 0,68,63
 297 4 297 4 297 32 c 128,-1,64
EndSplineSet
Validated: 1
EndChar

StartChar: V
Encoding: 86 86 31
Width: 492
GlyphClass: 2
Flags: W
LayerCount: 2
Fore
SplineSet
453 245 m 2,0,1
 465 241 465 241 465 229.5 c 128,-1,2
 465 218 465 218 453 214 c 2,3,-1
 261 156 l 2,4,5
 245 150 245 150 229 156 c 2,6,-1
 95 197 l 1,7,8
 83 187 83 187 81 172 c 1,9,10
 93 165 93 165 93 153 c 0,11,12
 93 142 93 142 83 135 c 1,13,-1
 101 57 l 2,14,15
 101 52 101 52 98 48 c 128,-1,16
 95 44 95 44 89 44 c 2,17,-1
 51 44 l 2,18,19
 45 44 45 44 42 48 c 128,-1,20
 39 52 39 52 41 57 c 2,21,-1
 59 135 l 1,22,23
 49 142 49 142 49 153 c 0,24,25
 49 165 49 165 59 172 c 1,26,27
 61 189 61 189 71 204 c 1,28,-1
 39 214 l 2,29,30
 27 218 27 218 27 229.5 c 128,-1,31
 27 241 27 241 39 245 c 2,32,-1
 229 304 l 2,33,34
 245 309 245 309 261 304 c 2,35,-1
 453 245 l 2,0,1
269 135 m 2,36,-1
 367 165 l 1,37,-1
 377 87 l 2,38,39
 377 69 377 69 339 56.5 c 128,-1,40
 301 44 301 44 246 44 c 128,-1,41
 191 44 191 44 153 56.5 c 128,-1,42
 115 69 115 69 115 87 c 2,43,-1
 123 165 l 1,44,-1
 223 135 l 2,45,46
 245 128 245 128 269 135 c 2,36,-1
EndSplineSet
Validated: 33
EndChar

StartChar: W
Encoding: 87 87 32
Width: 466
GlyphClass: 2
Flags: W
LayerCount: 2
Fore
SplineSet
330 144 m 1,0,-1
 372 144 l 1,1,-1
 372 80 l 1,2,-1
 436 80 l 1,3,-1
 436 38 l 1,4,-1
 372 38 l 1,5,-1
 372 -26 l 1,6,-1
 330 -26 l 1,7,-1
 330 38 l 1,8,-1
 266 38 l 1,9,-1
 266 80 l 1,10,-1
 330 80 l 1,11,-1
 330 144 l 1,0,-1
202 378 m 128,-1,13
 248 378 248 378 287 367 c 128,-1,14
 326 356 326 356 349 336 c 128,-1,15
 372 316 372 316 372 293 c 128,-1,16
 372 270 372 270 349 250 c 128,-1,17
 326 230 326 230 287 219 c 128,-1,18
 248 208 248 208 202 208 c 128,-1,19
 156 208 156 208 116 219 c 128,-1,20
 76 230 76 230 53 250 c 128,-1,21
 30 270 30 270 30 293 c 128,-1,22
 30 316 30 316 53 336 c 128,-1,23
 76 356 76 356 116 367 c 128,-1,12
 156 378 156 378 202 378 c 128,-1,13
30 250 m 1,24,25
 30 228 30 228 53 208 c 128,-1,26
 76 188 76 188 116 177 c 128,-1,27
 156 166 156 166 202 166 c 128,-1,28
 248 166 248 166 287 177 c 128,-1,29
 326 188 326 188 349 208 c 128,-1,30
 372 228 372 228 372 250 c 1,31,-1
 372 184 l 1,32,-1
 350 186 l 2,33,34
 310 186 310 186 277 163 c 128,-1,35
 244 140 244 140 230 102 c 1,36,-1
 202 102 l 2,37,38
 156 102 156 102 116 113 c 128,-1,39
 76 124 76 124 53 144 c 128,-1,40
 30 164 30 164 30 186 c 2,41,-1
 30 250 l 1,24,25
30 144 m 1,42,43
 30 120 30 120 53 101 c 128,-1,44
 76 82 76 82 116 70 c 128,-1,45
 156 58 156 58 202 58 c 2,46,-1
 222 58 l 1,47,48
 222 26 222 26 238 -4 c 1,49,-1
 202 -6 l 2,50,51
 156 -6 156 -6 116 6 c 128,-1,52
 76 18 76 18 53 37 c 128,-1,53
 30 56 30 56 30 80 c 2,54,-1
 30 144 l 1,42,43
EndSplineSet
Validated: 1
EndChar

StartChar: X
Encoding: 88 88 33
Width: 424
GlyphClass: 2
Flags: W
LayerCount: 2
Fore
SplineSet
392 176 m 0,0,1
 392 127 392 127 368 85.5 c 128,-1,2
 344 44 344 44 303 20 c 128,-1,3
 262 -4 262 -4 212 -4 c 0,4,5
 150 -4 150 -4 102 32.5 c 128,-1,6
 54 69 54 69 38 127 c 1,7,-1
 108 98 l 1,8,9
 112 81 112 81 126 69.5 c 128,-1,10
 140 58 140 58 158 58 c 0,11,12
 180 58 180 58 195 73.5 c 128,-1,13
 210 89 210 89 208 111 c 1,14,-1
 270 154 l 1,15,16
 298 153 298 153 319 173.5 c 128,-1,17
 340 194 340 194 340 222.5 c 128,-1,18
 340 251 340 251 320 270.5 c 128,-1,19
 300 290 300 290 272 290 c 128,-1,20
 244 290 244 290 224 270.5 c 128,-1,21
 204 251 204 251 204 222 c 1,22,-1
 160 159 l 1,23,24
 144 160 144 160 130 151 c 1,25,-1
 32 191 l 1,26,27
 38 260 38 260 90 308 c 128,-1,28
 142 356 142 356 212 356 c 0,29,30
 288 356 288 356 340 303.5 c 128,-1,31
 392 251 392 251 392 176 c 0,0,1
146 83 m 2,32,33
 156 79 156 79 167 83 c 128,-1,34
 178 87 178 87 183 98 c 128,-1,35
 188 109 188 109 183 119.5 c 128,-1,36
 178 130 178 130 168 135 c 2,37,-1
 144 144 l 1,38,39
 158 150 158 150 172 144 c 0,40,41
 188 138 188 138 194 123 c 128,-1,42
 200 108 200 108 194 93.5 c 128,-1,43
 188 79 188 79 173 73 c 128,-1,44
 158 67 158 67 142 73 c 0,45,46
 130 79 130 79 124 92 c 1,47,-1
 146 83 l 2,32,33
272 177 m 128,-1,49
 254 177 254 177 240 190.5 c 128,-1,50
 226 204 226 204 226 222.5 c 128,-1,51
 226 241 226 241 240 254 c 128,-1,52
 254 267 254 267 272 267 c 128,-1,53
 290 267 290 267 304 254 c 128,-1,54
 318 241 318 241 318 222.5 c 128,-1,55
 318 204 318 204 304 190.5 c 128,-1,48
 290 177 290 177 272 177 c 128,-1,49
272 188 m 128,-1,57
 286 188 286 188 296 198.5 c 128,-1,58
 306 209 306 209 306 222.5 c 128,-1,59
 306 236 306 236 296 246.5 c 128,-1,60
 286 257 286 257 272 257 c 128,-1,61
 258 257 258 257 248 246.5 c 128,-1,62
 238 236 238 236 238 222.5 c 128,-1,63
 238 209 238 209 248 198.5 c 128,-1,56
 258 188 258 188 272 188 c 128,-1,57
EndSplineSet
Validated: 33
EndChar

StartChar: Y
Encoding: 89 89 34
Width: 430
GlyphClass: 2
Flags: W
LayerCount: 2
Fore
SplineSet
156 68 m 128,-1,1
 156 65 156 65 152 65 c 128,-1,2
 148 65 148 65 148 68 c 128,-1,3
 148 71 148 71 152 71 c 128,-1,0
 156 71 156 71 156 68 c 128,-1,1
133 71 m 128,-1,5
 134 74 134 74 138 73 c 0,6,7
 140 72 140 72 140 69 c 128,-1,8
 140 66 140 66 136 68 c 0,9,4
 132 68 132 68 133 71 c 128,-1,5
164 73 m 0,10,11
 168 73 168 73 169 70.5 c 128,-1,12
 170 68 170 68 166 67 c 128,-1,13
 162 66 162 66 162 69 c 128,-1,14
 162 72 162 72 164 73 c 0,10,11
212 351 m 0,15,16
 262 351 262 351 304 327.5 c 128,-1,17
 346 304 346 304 371 263.5 c 128,-1,18
 396 223 396 223 396 174 c 0,19,20
 396 113 396 113 362 65.5 c 128,-1,21
 328 18 328 18 274 0 c 0,22,23
 268 -1 268 -1 264 1.5 c 128,-1,24
 260 4 260 4 260 9 c 2,25,-1
 260 32 l 1,26,-1
 260 70 l 2,27,28
 260 93 260 93 248 103 c 1,29,30
 264 105 264 105 273 106.5 c 128,-1,31
 282 108 282 108 295 113 c 128,-1,32
 308 118 308 118 315 126 c 128,-1,33
 322 134 322 134 327 148.5 c 128,-1,34
 332 163 332 163 332 184 c 0,35,36
 332 198 332 198 328 206.5 c 128,-1,37
 324 215 324 215 314 226 c 1,38,39
 322 248 322 248 312 275 c 1,40,41
 304 277 304 277 292 272.5 c 128,-1,42
 280 268 280 268 270 262 c 2,43,-1
 262 256 l 1,44,45
 238 262 238 262 215 262 c 128,-1,46
 192 262 192 262 170 256 c 0,47,48
 166 259 166 259 160 263 c 128,-1,49
 154 267 154 267 140 272 c 128,-1,50
 126 277 126 277 120 275 c 1,51,52
 110 248 110 248 118 226 c 1,53,54
 102 208 102 208 102 184 c 0,55,56
 102 163 102 163 107 148.5 c 128,-1,57
 112 134 112 134 118 126 c 128,-1,58
 124 118 124 118 136 113 c 128,-1,59
 148 108 148 108 158 106.5 c 128,-1,60
 168 105 168 105 182 103 c 1,61,62
 172 94 172 94 170 78 c 1,63,64
 164 76 164 76 156 74.5 c 128,-1,65
 148 73 148 73 136 77 c 128,-1,66
 124 81 124 81 118 94 c 0,67,68
 114 102 114 102 107 106.5 c 128,-1,69
 100 111 100 111 94 112 c 2,70,-1
 90 113 l 2,71,72
 74 113 74 113 88 102 c 0,73,74
 94 99 94 99 99 92.5 c 128,-1,75
 104 86 104 86 106 81 c 2,76,-1
 110 75 l 2,77,78
 112 66 112 66 119 60.5 c 128,-1,79
 126 55 126 55 135 53.5 c 128,-1,80
 144 52 144 52 152 52 c 2,81,-1
 164 52 l 1,82,-1
 170 53 l 1,83,-1
 170 27 l 1,84,-1
 170 9 l 2,85,86
 170 4 170 4 167 1.5 c 128,-1,87
 164 -1 164 -1 158 0 c 0,88,89
 104 18 104 18 69 65.5 c 128,-1,90
 34 113 34 113 34 174 c 0,91,92
 34 249 34 249 86 300 c 128,-1,93
 138 351 138 351 212 351 c 0,15,16
105 100.5 m 128,-1,95
 106 102 106 102 109 99.5 c 128,-1,96
 112 97 112 97 110 95.5 c 128,-1,97
 108 94 108 94 106 96.5 c 128,-1,94
 104 99 104 99 105 100.5 c 128,-1,95
98 106 m 0,98,99
 98 108 98 108 102 107 c 0,100,101
 104 105 104 105 102 104 c 0,102,103
 102 102 102 102 100 103 c 0,104,105
 96 105 96 105 98 106 c 0,98,99
122 81 m 0,106,107
 122 83 122 83 125 80 c 128,-1,108
 128 77 128 77 128 75 c 0,109,110
 124 73 124 73 122 75.5 c 128,-1,111
 120 78 120 78 122 81 c 0,106,107
112 91 m 0,112,113
 114 93 114 93 116 89 c 0,114,115
 120 86 120 86 117 85 c 128,-1,116
 114 84 114 84 113 87 c 128,-1,117
 112 90 112 90 112 91 c 0,112,113
EndSplineSet
Validated: 33
EndChar

StartChar: bracketleft
Encoding: 91 91 35
Width: 469
GlyphClass: 2
Flags: W
LayerCount: 2
Fore
SplineSet
304 176 m 0,0,1
 310 176 310 176 314 177 c 2,2,-1
 404 203 l 1,3,-1
 404 86 l 2,4,5
 404 78 404 78 399 72.5 c 128,-1,6
 394 67 394 67 388 65 c 2,7,-1
 244 29 l 2,8,9
 234 27 234 27 224 29 c 2,10,-1
 82 65 l 2,11,12
 74 67 74 67 70 72.5 c 128,-1,13
 66 78 66 78 66 86 c 2,14,-1
 66 203 l 1,15,-1
 156 177 l 2,16,17
 160 176 160 176 164 176 c 0,18,19
 184 176 184 176 192 191 c 2,20,-1
 234 262 l 1,21,-1
 276 191 l 2,22,23
 286 176 286 176 304 176 c 0,0,1
444 250 m 2,24,25
 448 245 448 245 446 240.5 c 128,-1,26
 444 236 444 236 438 235 c 2,27,-1
 308 198 l 2,28,29
 300 195 300 195 296 202 c 2,30,-1
 234 303 l 1,31,-1
 400 324 l 2,32,33
 408 325 408 325 410 318 c 2,34,-1
 444 250 l 2,24,25
58 318 m 2,35,36
 62 325 62 325 70 324 c 2,37,-1
 234 303 l 1,38,-1
 174 202 l 2,39,40
 170 195 170 195 162 198 c 2,41,-1
 32 235 l 2,42,43
 26 236 26 236 24 240.5 c 128,-1,44
 22 245 22 245 24 250 c 2,45,-1
 58 318 l 2,35,36
EndSplineSet
Validated: 37
EndChar

StartChar: backslash
Encoding: 92 92 36
Width: 372
GlyphClass: 2
Flags: W
LayerCount: 2
Fore
SplineSet
185 163 m 2,0,-1
 79 55 l 2,1,2
 73 49 73 49 65 49 c 128,-1,3
 57 49 57 49 51 55 c 2,4,-1
 33 73 l 2,5,6
 29 78 29 78 29 86 c 128,-1,7
 29 94 29 94 33 100 c 2,8,-1
 109 176 l 1,9,-1
 33 252 l 2,10,11
 29 258 29 258 29 266 c 128,-1,12
 29 274 29 274 33 279 c 2,13,-1
 51 297 l 2,14,15
 57 303 57 303 65 303 c 128,-1,16
 73 303 73 303 79 297 c 2,17,-1
 185 189 l 2,18,19
 191 184 191 184 191 176 c 128,-1,20
 191 168 191 168 185 163 c 2,0,-1
339 189 m 2,21,22
 343 184 343 184 343 176 c 128,-1,23
 343 168 343 168 339 163 c 2,24,-1
 231 55 l 2,25,26
 225 49 225 49 217 49 c 128,-1,27
 209 49 209 49 203 55 c 2,28,-1
 185 73 l 2,29,30
 181 78 181 78 181 86 c 128,-1,31
 181 94 181 94 185 100 c 2,32,-1
 263 176 l 1,33,-1
 185 252 l 2,34,35
 181 258 181 258 181 266 c 128,-1,36
 181 274 181 274 185 279 c 2,37,-1
 203 297 l 2,38,39
 207 300 207 300 210 301.5 c 128,-1,40
 213 303 213 303 217 303 c 128,-1,41
 221 303 221 303 225 301.5 c 128,-1,42
 229 300 229 300 231 297 c 2,43,-1
 339 189 l 2,21,22
EndSplineSet
Validated: 1
EndChar

StartChar: bracketright
Encoding: 93 93 37
Width: 472
GlyphClass: 2
Flags: W
LayerCount: 2
Fore
SplineSet
118 38 m 2,0,-1
 118 64 l 2,1,2
 118 70 118 70 114 74 c 128,-1,3
 110 78 110 78 104 77 c 2,4,-1
 78 77 l 2,5,6
 74 77 74 77 70 73.5 c 128,-1,7
 66 70 66 70 66 64 c 2,8,-1
 66 38 l 2,9,10
 66 33 66 33 70 29 c 128,-1,11
 74 25 74 25 78 25 c 2,12,-1
 104 25 l 2,13,14
 110 25 110 25 114 29 c 128,-1,15
 118 33 118 33 118 38 c 2,0,-1
118 117 m 2,16,-1
 118 143 l 2,17,18
 118 148 118 148 114 152 c 128,-1,19
 110 156 110 156 104 156 c 2,20,-1
 78 156 l 2,21,22
 74 156 74 156 70 152 c 128,-1,23
 66 148 66 148 66 143 c 2,24,-1
 66 117 l 2,25,26
 66 112 66 112 70 107.5 c 128,-1,27
 74 103 74 103 78 104 c 2,28,-1
 104 104 l 2,29,30
 110 104 110 104 114 107.5 c 128,-1,31
 118 111 118 111 118 117 c 2,16,-1
118 196 m 2,32,-1
 118 222 l 2,33,34
 118 227 118 227 114 231 c 128,-1,35
 110 235 110 235 104 235 c 2,36,-1
 78 235 l 2,37,38
 74 235 74 235 70 231 c 128,-1,39
 66 227 66 227 66 222 c 2,40,-1
 66 196 l 2,41,42
 66 190 66 190 70 186.5 c 128,-1,43
 74 183 74 183 78 183 c 2,44,-1
 104 183 l 2,45,46
 110 183 110 183 114 187 c 128,-1,47
 118 191 118 191 118 196 c 2,32,-1
328 38 m 2,48,-1
 328 143 l 2,49,50
 328 148 328 148 324 152 c 128,-1,51
 320 156 320 156 314 156 c 2,52,-1
 158 156 l 2,53,54
 152 156 152 156 148 152 c 128,-1,55
 144 148 144 148 144 143 c 2,56,-1
 144 38 l 2,57,58
 144 33 144 33 148 29 c 128,-1,59
 152 25 152 25 158 25 c 2,60,-1
 314 25 l 2,61,62
 320 25 320 25 324 29 c 128,-1,63
 328 33 328 33 328 38 c 2,48,-1
118 275 m 2,64,-1
 118 301 l 2,65,66
 118 306 118 306 114 310 c 128,-1,67
 110 314 110 314 104 314 c 2,68,-1
 78 314 l 2,69,70
 74 314 74 314 70 310.5 c 128,-1,71
 66 307 66 307 66 301 c 2,72,-1
 66 275 l 2,73,74
 66 269 66 269 70 265.5 c 128,-1,75
 74 262 74 262 78 261 c 2,76,-1
 104 261 l 2,77,78
 110 261 110 261 114 265 c 128,-1,79
 118 269 118 269 118 275 c 2,64,-1
406 38 m 2,80,-1
 406 64 l 2,81,82
 406 70 406 70 402 74 c 128,-1,83
 398 78 398 78 394 77 c 2,84,-1
 368 77 l 2,85,86
 362 77 362 77 358 73.5 c 128,-1,87
 354 70 354 70 354 64 c 2,88,-1
 354 38 l 2,89,90
 354 33 354 33 358 29 c 128,-1,91
 362 25 362 25 368 25 c 2,92,-1
 394 25 l 2,93,94
 400 25 400 25 403 29 c 128,-1,95
 406 33 406 33 406 38 c 2,80,-1
328 196 m 2,96,-1
 328 301 l 2,97,98
 328 306 328 306 324 310 c 128,-1,99
 320 314 320 314 314 314 c 2,100,-1
 158 314 l 2,101,102
 152 314 152 314 148 310.5 c 128,-1,103
 144 307 144 307 144 301 c 2,104,-1
 144 196 l 2,105,106
 144 190 144 190 148 186.5 c 128,-1,107
 152 183 152 183 158 183 c 2,108,-1
 314 183 l 2,109,110
 320 183 320 183 324 187 c 128,-1,111
 328 191 328 191 328 196 c 2,96,-1
406 117 m 2,112,-1
 406 143 l 2,113,114
 406 148 406 148 402 152 c 128,-1,115
 398 156 398 156 394 156 c 2,116,-1
 368 156 l 2,117,118
 362 156 362 156 358 152 c 128,-1,119
 354 148 354 148 354 143 c 2,120,-1
 354 117 l 2,121,122
 354 112 354 112 358 107.5 c 128,-1,123
 362 103 362 103 368 104 c 2,124,-1
 394 104 l 2,125,126
 400 104 400 104 403 107.5 c 128,-1,127
 406 111 406 111 406 117 c 2,112,-1
406 196 m 2,128,-1
 406 222 l 2,129,130
 406 227 406 227 402 231 c 128,-1,131
 398 235 398 235 394 235 c 2,132,-1
 368 235 l 2,133,134
 362 235 362 235 358 231 c 128,-1,135
 354 227 354 227 354 222 c 2,136,-1
 354 196 l 2,137,138
 354 190 354 190 358 186.5 c 128,-1,139
 362 183 362 183 368 183 c 2,140,-1
 394 183 l 2,141,142
 400 183 400 183 403 187 c 128,-1,143
 406 191 406 191 406 196 c 2,128,-1
406 275 m 2,144,-1
 406 301 l 2,145,146
 406 306 406 306 402 310 c 128,-1,147
 398 314 398 314 394 314 c 2,148,-1
 368 314 l 2,149,150
 362 314 362 314 358 310.5 c 128,-1,151
 354 307 354 307 354 301 c 2,152,-1
 354 275 l 2,153,154
 354 269 354 269 358 265.5 c 128,-1,155
 362 262 362 262 368 261 c 2,156,-1
 394 261 l 2,157,158
 400 261 400 261 403 265 c 128,-1,159
 406 269 406 269 406 275 c 2,144,-1
434 307 m 2,160,-1
 434 31 l 2,161,162
 434 18 434 18 424 8.5 c 128,-1,163
 414 -1 414 -1 400 -1 c 2,164,-1
 72 -1 l 2,165,166
 58 -1 58 -1 48 8.5 c 128,-1,167
 38 18 38 18 38 31 c 2,168,-1
 38 307 l 2,169,170
 38 321 38 321 48 330.5 c 128,-1,171
 58 340 58 340 72 340 c 2,172,-1
 400 340 l 2,173,174
 414 340 414 340 424 330.5 c 128,-1,175
 434 321 434 321 434 307 c 2,160,-1
EndSplineSet
Validated: 1
EndChar

StartChar: asciicircum
Encoding: 94 94 38
Width: 392
GlyphClass: 2
Flags: W
LayerCount: 2
Fore
SplineSet
274 313 m 1,0,-1
 274 334 l 2,1,2
 274 349 274 349 262.5 360.5 c 128,-1,3
 251 372 251 372 236 372 c 2,4,-1
 156 372 l 2,5,6
 141 372 141 372 129.5 360.5 c 128,-1,7
 118 349 118 349 118 334 c 2,8,-1
 118 313 l 1,9,10
 84 313 84 313 61 290 c 128,-1,11
 38 267 38 267 38 235 c 2,12,-1
 38 18 l 2,13,14
 38 3 38 3 49.5 -8.5 c 128,-1,15
 61 -20 61 -20 78 -20 c 2,16,-1
 314 -20 l 2,17,18
 331 -20 331 -20 342.5 -8.5 c 128,-1,19
 354 3 354 3 354 18 c 2,20,-1
 354 235 l 2,21,22
 354 267 354 267 331 290 c 128,-1,23
 308 313 308 313 274 313 c 1,0,-1
156 334 m 1,24,-1
 236 334 l 1,25,-1
 236 313 l 1,26,-1
 156 313 l 1,27,-1
 156 334 l 1,24,-1
196 235 m 1,28,-1
 236 195 l 1,29,-1
 196 157 l 1,30,-1
 156 195 l 1,31,-1
 196 235 l 1,28,-1
314 98 m 1,32,-1
 137 98 l 1,33,-1
 137 58 l 1,34,-1
 118 58 l 1,35,-1
 118 98 l 1,36,-1
 78 98 l 1,37,-1
 78 117 l 1,38,-1
 314 117 l 1,39,-1
 314 98 l 1,32,-1
EndSplineSet
Validated: 9
EndChar

StartChar: a
Encoding: 97 97 39
Width: 407
GlyphClass: 2
Flags: W
LayerCount: 2
Fore
SplineSet
372 70 m 2,0,1
 380 63 380 63 380 52.5 c 128,-1,2
 380 42 380 42 372 35 c 2,3,-1
 336 -2 l 2,4,5
 328 -10 328 -10 318 -10 c 128,-1,6
 308 -10 308 -10 300 -2 c 2,7,-1
 220 79 l 2,8,9
 208 90 208 90 205 107 c 128,-1,10
 202 124 202 124 210 137 c 1,11,-1
 136 211 l 1,12,-1
 94 211 l 1,13,-1
 26 300 l 1,14,-1
 70 344 l 1,15,-1
 160 277 l 1,16,-1
 160 235 l 1,17,-1
 234 161 l 1,18,19
 246 168 246 168 263 165.5 c 128,-1,20
 280 163 280 163 292 151 c 2,21,-1
 372 70 l 2,0,1
256 188 m 0,22,23
 246 188 246 188 238 186 c 1,24,-1
 182 243 l 1,25,26
 182 285 182 285 210 315 c 0,27,28
 228 333 228 333 254 340 c 128,-1,29
 280 347 280 347 304 341 c 0,30,31
 310 340 310 340 311 335 c 128,-1,32
 312 330 312 330 308 327 c 2,33,-1
 258 275 l 1,34,-1
 264 228 l 1,35,-1
 312 221 l 1,36,-1
 364 272 l 2,37,38
 366 275 366 275 371 274 c 128,-1,39
 376 273 376 273 378 268 c 0,40,41
 384 244 384 244 377 218.5 c 128,-1,42
 370 193 370 193 352 174 c 0,43,44
 338 162 338 162 320 154 c 1,45,-1
 308 167 l 2,46,47
 286 188 286 188 256 188 c 0,22,23
184 132 m 1,48,49
 180 110 180 110 188 88 c 1,50,-1
 102 4 l 2,51,52
 88 -10 88 -10 70 -10 c 128,-1,53
 52 -10 52 -10 39 3 c 128,-1,54
 26 16 26 16 26 34.5 c 128,-1,55
 26 53 26 53 40 66 c 2,56,-1
 144 171 l 1,57,-1
 184 132 l 1,48,49
71 18 m 128,-1,59
 78 18 78 18 83 23 c 128,-1,60
 88 28 88 28 88 34.5 c 128,-1,61
 88 41 88 41 83 46 c 128,-1,62
 78 51 78 51 71 51 c 128,-1,63
 64 51 64 51 59 46 c 128,-1,64
 54 41 54 41 54 34.5 c 128,-1,65
 54 28 54 28 59 23 c 128,-1,58
 64 18 64 18 71 18 c 128,-1,59
EndSplineSet
Validated: 33
EndChar

StartChar: b
Encoding: 98 98 40
Width: 433
GlyphClass: 2
Flags: W
LayerCount: 2
Fore
SplineSet
388 271 m 2,0,1
 394 271 394 271 398.5 266.5 c 128,-1,2
 403 262 403 262 403 256 c 2,3,-1
 403 220 l 2,4,5
 403 183 403 183 363 154 c 0,6,7
 332 132 332 132 292 128 c 1,8,9
 272 94 272 94 248 80 c 1,10,-1
 248 33 l 1,11,-1
 279 33 l 2,12,13
 296 33 296 33 308 23.5 c 128,-1,14
 320 14 320 14 320 -3 c 2,15,-1
 320 -11 l 2,16,17
 320 -19 320 -19 312 -19 c 2,18,-1
 121 -19 l 2,19,20
 113 -19 113 -19 113 -11 c 2,21,-1
 113 -3 l 2,22,23
 113 14 113 14 125 23.5 c 128,-1,24
 137 33 137 33 154 33 c 2,25,-1
 185 33 l 1,26,-1
 185 80 l 2,27,28
 183 81 183 81 178.5 84 c 128,-1,29
 174 87 174 87 162 99.5 c 128,-1,30
 150 112 150 112 141 128 c 1,31,32
 101 132 101 132 70 154 c 0,33,34
 30 183 30 183 30 220 c 2,35,-1
 30 256 l 2,36,37
 30 262 30 262 34.5 266.5 c 128,-1,38
 39 271 39 271 45 271 c 2,39,-1
 113 271 l 1,40,-1
 113 297 l 2,41,42
 113 304 113 304 117.5 308.5 c 128,-1,43
 122 313 122 313 128 313 c 2,44,-1
 305 313 l 2,45,46
 311 313 311 313 315.5 308.5 c 128,-1,47
 320 304 320 304 320 297 c 2,48,-1
 320 271 l 1,49,-1
 388 271 l 2,0,1
94 188 m 0,50,51
 106 179 106 179 121 174 c 1,52,53
 114 201 114 201 113 230 c 1,54,-1
 71 230 l 1,55,-1
 71 220 l 2,56,57
 71 205 71 205 94 188 c 0,50,51
362 220 m 2,58,-1
 362 230 l 1,59,-1
 320 230 l 1,60,61
 319 201 319 201 312 174 c 1,62,63
 327 179 327 179 339 188 c 0,64,65
 362 205 362 205 362 220 c 2,58,-1
EndSplineSet
Validated: 1
EndChar

StartChar: c
Encoding: 99 99 41
Width: 421
GlyphClass: 2
Flags: W
LayerCount: 2
Fore
SplineSet
359 315 m 2,0,-1
 62 315 l 2,1,2
 52 315 52 315 45 308 c 128,-1,3
 38 301 38 301 38 290 c 2,4,-1
 38 44 l 2,5,6
 38 33 38 33 45 26 c 128,-1,7
 52 19 52 19 62 19 c 2,8,-1
 359 19 l 2,9,10
 369 19 369 19 376 26 c 128,-1,11
 383 33 383 33 383 44 c 2,12,-1
 383 290 l 2,13,14
 383 301 383 301 376 308 c 128,-1,15
 369 315 369 315 359 315 c 2,0,-1
87 143 m 1,16,-1
 137 191 l 1,17,-1
 87 241 l 1,18,-1
 112 266 l 1,19,-1
 186 191 l 1,20,-1
 112 118 l 1,21,-1
 87 143 l 1,16,-1
285 118 m 1,22,-1
 186 118 l 1,23,-1
 186 143 l 1,24,-1
 285 143 l 1,25,-1
 285 118 l 1,22,-1
EndSplineSet
Validated: 9
EndChar

StartChar: d
Encoding: 100 100 42
Width: 478
GlyphClass: 2
Flags: W
LayerCount: 2
Fore
SplineSet
427 287 m 1,0,1
 373 295 373 295 314 298 c 1,2,-1
 380 364 l 1,3,-1
 354 389 l 1,4,-1
 264 300 l 1,5,-1
 239 300 l 1,6,-1
 137 402 l 1,7,-1
 111 376 l 1,8,-1
 189 299 l 1,9,10
 116 296 116 296 51 287 c 1,11,12
 43 254 43 254 38.5 219 c 128,-1,13
 34 184 34 184 34 146 c 128,-1,14
 34 108 34 108 38.5 73 c 128,-1,15
 43 38 43 38 51 6 c 1,16,17
 95 -1 95 -1 142 -4 c 128,-1,18
 189 -7 189 -7 239 -7 c 128,-1,19
 289 -7 289 -7 336 -4 c 128,-1,20
 383 -1 383 -1 427 6 c 1,21,22
 435 38 435 38 439.5 73 c 128,-1,23
 444 108 444 108 444 146 c 128,-1,24
 444 184 444 184 439.5 219 c 128,-1,25
 435 254 435 254 427 287 c 1,0,1
380 52 m 1,26,27
 315 44 315 44 239 44 c 128,-1,28
 163 44 163 44 98 52 c 1,29,30
 86 96 86 96 86 146.5 c 128,-1,31
 86 197 86 197 98 240 c 1,32,33
 163 248 163 248 239 248 c 128,-1,34
 315 248 315 248 380 240 c 1,35,36
 392 197 392 197 392 146.5 c 128,-1,37
 392 96 392 96 380 52 c 1,26,27
EndSplineSet
Validated: 9
EndChar

StartChar: e
Encoding: 101 101 43
Width: 441
GlyphClass: 2
Flags: W
LayerCount: 2
Fore
SplineSet
414 162 m 128,-1,1
 414 152 414 152 406 145.5 c 128,-1,2
 398 139 398 139 389 139 c 2,3,-1
 347 139 l 1,4,-1
 347 126 l 2,5,6
 347 102 347 102 337 80 c 1,7,-1
 383 35 l 2,8,9
 390 27 390 27 390 17 c 128,-1,10
 390 7 390 7 382.5 0.5 c 128,-1,11
 375 -6 375 -6 365 -6 c 128,-1,12
 355 -6 355 -6 348 0 c 2,13,-1
 307 42 l 1,14,15
 277 18 277 18 239 18 c 1,16,-1
 239 202 l 2,17,18
 239 211 239 211 229 211 c 2,19,-1
 212 211 l 2,20,21
 202 211 202 211 202 202 c 2,22,-1
 202 18 l 1,23,24
 163 18 163 18 134 42 c 1,25,-1
 93 0 l 2,26,27
 86 -6 86 -6 76 -6 c 128,-1,28
 66 -6 66 -6 58.5 0.5 c 128,-1,29
 51 7 51 7 51 17 c 128,-1,30
 51 27 51 27 58 35 c 2,31,-1
 104 80 l 1,32,33
 94 102 94 102 94 126 c 2,34,-1
 94 139 l 1,35,-1
 52 139 l 2,36,37
 43 139 43 139 35 145.5 c 128,-1,38
 27 152 27 152 27 162 c 128,-1,39
 27 172 27 172 34 179.5 c 128,-1,40
 41 187 41 187 51 187 c 2,41,-1
 94 187 l 1,42,-1
 94 231 l 1,43,-1
 58 267 l 2,44,45
 51 274 51 274 51 284 c 128,-1,46
 51 294 51 294 58.5 301 c 128,-1,47
 66 308 66 308 76 308 c 128,-1,48
 86 308 86 308 93 301 c 2,49,-1
 134 259 l 1,50,-1
 307 259 l 1,51,-1
 348 301 l 2,52,53
 355 308 355 308 365 308 c 128,-1,54
 375 308 375 308 382.5 301 c 128,-1,55
 390 294 390 294 390 284 c 128,-1,56
 390 274 390 274 383 267 c 2,57,-1
 347 231 l 1,58,-1
 347 187 l 1,59,-1
 390 187 l 2,60,61
 400 187 400 187 407 179.5 c 128,-1,0
 414 172 414 172 414 162 c 128,-1,1
221 380 m 128,-1,63
 256 380 256 380 281 355.5 c 128,-1,64
 306 331 306 331 306 296 c 1,65,-1
 137 296 l 1,66,67
 137 331 137 331 161.5 355.5 c 128,-1,62
 186 380 186 380 221 380 c 128,-1,63
EndSplineSet
Validated: 1
EndChar

StartChar: f
Encoding: 102 102 44
Width: 489
GlyphClass: 2
Flags: W
LayerCount: 2
Fore
SplineSet
230 179.5 m 128,-1,1
 230 203 230 203 213.5 220 c 128,-1,2
 197 237 197 237 173.5 237 c 128,-1,3
 150 237 150 237 133 220 c 128,-1,4
 116 203 116 203 116 179.5 c 128,-1,5
 116 156 116 156 132.5 139 c 128,-1,6
 149 122 149 122 173 122 c 128,-1,7
 197 122 197 122 213.5 139 c 128,-1,0
 230 156 230 156 230 179.5 c 128,-1,1
402 65 m 0,8,9
 402 77 402 77 393 85.5 c 128,-1,10
 384 94 384 94 373 94 c 128,-1,11
 362 94 362 94 353 86 c 128,-1,12
 344 78 344 78 345 65 c 0,13,14
 345 54 345 54 353 45.5 c 128,-1,15
 361 37 361 37 373 37 c 128,-1,16
 385 37 385 37 393.5 45.5 c 128,-1,17
 402 54 402 54 402 65 c 0,8,9
402 294 m 128,-1,19
 402 306 402 306 393 314 c 128,-1,20
 384 322 384 322 373 322 c 128,-1,21
 362 322 362 322 353 314 c 128,-1,22
 344 306 344 306 344.5 294 c 128,-1,23
 345 282 345 282 353 273.5 c 128,-1,24
 361 265 361 265 373 265.5 c 128,-1,25
 385 266 385 266 393.5 274 c 128,-1,18
 402 282 402 282 402 294 c 128,-1,19
316 200 m 2,26,-1
 316 159 l 2,27,28
 316 156 316 156 314.5 154 c 128,-1,29
 313 152 313 152 311 152 c 2,30,-1
 276 146 l 1,31,32
 274 139 274 139 269 130 c 1,33,34
 277 119 277 119 289 104 c 0,35,36
 291 102 291 102 291 99.5 c 128,-1,37
 291 97 291 97 289 95 c 0,38,39
 284 88 284 88 271 75 c 128,-1,40
 258 62 258 62 253 62 c 0,41,42
 251 62 251 62 249 64 c 2,43,-1
 223 84 l 1,44,45
 215 79 215 79 206 77 c 1,46,47
 204 53 204 53 201 42 c 0,48,49
 199 37 199 37 194 37 c 2,50,-1
 152 37 l 2,51,52
 150 37 150 37 148 38.5 c 128,-1,53
 146 40 146 40 146 42 c 2,54,-1
 141 76 l 1,55,56
 133 79 133 79 124 84 c 1,57,-1
 98 64 l 2,58,59
 96 62 96 62 93.5 62 c 128,-1,60
 91 62 91 62 88 64 c 0,61,62
 56 94 56 94 56 100 c 0,63,64
 56 102 56 102 58 104 c 0,65,66
 60 107 60 107 67 115.5 c 128,-1,67
 74 124 74 124 78 129 c 1,68,69
 72 139 72 139 70 148 c 1,70,-1
 36 153 l 2,71,72
 34 153 34 153 32 154.5 c 128,-1,73
 30 156 30 156 30 159 c 2,74,-1
 30 200 l 2,75,76
 30 203 30 203 32 205 c 128,-1,77
 34 207 34 207 36 207 c 2,78,-1
 70 213 l 1,79,80
 73 220 73 220 77 230 c 1,81,-1
 57 255 l 2,82,83
 55 258 55 258 55 260 c 128,-1,84
 55 262 55 262 57 264 c 0,85,86
 62 271 62 271 75.5 284 c 128,-1,87
 89 297 89 297 93 297 c 0,88,89
 96 297 96 297 98 296 c 2,90,-1
 124 276 l 1,91,92
 131 280 131 280 141 283 c 1,93,94
 143 307 143 307 146 317 c 0,95,96
 147 322 147 322 152 322 c 2,97,-1
 194 322 l 2,98,99
 196 322 196 322 198 320.5 c 128,-1,100
 200 319 200 319 201 317 c 2,101,-1
 206 283 l 1,102,103
 214 280 214 280 222 276 c 1,104,-1
 249 296 l 2,105,106
 251 297 251 297 253.5 297 c 128,-1,107
 256 297 256 297 258 296 c 0,108,109
 290 266 290 266 290 260 c 0,110,111
 290 258 290 258 289 256 c 2,112,-1
 279 244 l 2,113,114
 272 235 272 235 269 230 c 1,115,116
 274 219 274 219 277 212 c 1,117,-1
 311 207 l 2,118,119
 313 206 313 206 314.5 204.5 c 128,-1,120
 316 203 316 203 316 200 c 2,26,-1
459 81 m 2,121,-1
 459 50 l 2,122,123
 459 46 459 46 426 43 c 1,124,125
 423 37 423 37 419 31 c 1,126,127
 430 6 430 6 430 0 c 2,128,-1
 430 -1 l 1,129,-1
 402 -17 l 2,130,131
 400 -17 400 -17 392 -6 c 2,132,-1
 380 8 l 1,133,-1
 373 8 l 1,134,-1
 366 8 l 1,135,136
 364 4 364 4 355 -6.5 c 128,-1,137
 346 -17 346 -17 345 -17 c 128,-1,138
 344 -17 344 -17 317 -1 c 1,139,-1
 316 0 l 1,140,141
 316 6 316 6 328 31 c 1,142,143
 324 37 324 37 321 43 c 1,144,145
 288 46 288 46 287 50 c 2,146,-1
 287 81 l 2,147,148
 287 84 287 84 321 88 c 1,149,150
 324 95 324 95 328 100 c 1,151,152
 316 125 316 125 316 130 c 0,153,154
 316 131 316 131 317 132 c 2,155,-1
 338 144 l 2,156,157
 344 148 344 148 345 148 c 128,-1,158
 346 148 346 148 354.5 137.5 c 128,-1,159
 363 127 363 127 366 122 c 1,160,-1
 373 122 l 1,161,-1
 380 122 l 1,162,163
 391 138 391 138 400 147 c 1,164,-1
 402 148 l 2,165,166
 403 148 403 148 430 132 c 1,167,-1
 430 130 l 2,168,169
 430 125 430 125 419 100 c 1,170,171
 423 94 423 94 426 88 c 1,172,173
 459 84 459 84 459 81 c 2,121,-1
459 310 m 2,174,-1
 459 278 l 2,175,176
 459 275 459 275 426 271 c 1,177,178
 423 265 423 265 419 260 c 1,179,180
 430 234 430 234 430 229 c 2,181,-1
 430 227 l 1,182,-1
 402 212 l 2,183,184
 400 212 400 212 391.5 222 c 128,-1,185
 383 232 383 232 380 237 c 1,186,-1
 373 237 l 1,187,-1
 366 237 l 1,188,189
 363 232 363 232 354.5 222 c 128,-1,190
 346 212 346 212 345 212 c 128,-1,191
 344 212 344 212 317 227 c 0,192,193
 316 228 316 228 316 229 c 0,194,195
 316 234 316 234 328 260 c 1,196,197
 324 265 324 265 321 271 c 1,198,199
 287 275 287 275 287 278 c 2,200,-1
 287 310 l 2,201,202
 287 313 287 313 321 316 c 1,203,204
 324 323 324 323 328 328 c 1,205,206
 316 353 316 353 316 359 c 0,207,208
 316 360 316 360 317 360 c 2,209,-1
 338 372 l 2,210,211
 344 376 344 376 345 376 c 128,-1,212
 346 376 346 376 354.5 365.5 c 128,-1,213
 363 355 363 355 366 350 c 1,214,215
 371 351 371 351 373 351 c 128,-1,216
 375 351 375 351 380 350 c 1,217,218
 391 366 391 366 400 376 c 1,219,-1
 402 376 l 2,220,221
 403 376 403 376 430 360 c 1,222,-1
 430 359 l 2,223,224
 430 353 430 353 419 328 c 1,225,226
 423 323 423 323 426 316 c 1,227,228
 459 313 459 313 459 310 c 2,174,-1
EndSplineSet
Validated: 33
EndChar

StartChar: g
Encoding: 103 103 45
Width: 459
GlyphClass: 2
Flags: W
LayerCount: 2
Fore
SplineSet
428 178.5 m 128,-1,1
 428 153 428 153 406 140 c 1,2,-1
 406 35 l 2,3,4
 406 28 406 28 401 20 c 128,-1,5
 396 12 396 12 384 12 c 0,6,7
 376 12 376 12 370 17 c 2,8,-1
 312 64 l 2,9,10
 266 101 266 101 208 101 c 2,11,-1
 188 101 l 1,12,13
 186 90 186 90 186 79 c 0,14,15
 186 49 186 49 204 26 c 0,16,17
 210 15 210 15 204 2.5 c 128,-1,18
 198 -10 198 -10 186 -10 c 2,19,-1
 134 -10 l 2,20,21
 120 -10 120 -10 114 2 c 0,22,23
 98 39 98 39 98 79 c 2,24,-1
 98 101 l 1,25,-1
 74 101 l 2,26,27
 56 101 56 101 43 113.5 c 128,-1,28
 30 126 30 126 30 145 c 2,29,-1
 30 211 l 2,30,31
 30 230 30 230 43 242.5 c 128,-1,32
 56 255 56 255 74 255 c 2,33,-1
 208 255 l 2,34,35
 266 255 266 255 312 292 c 2,36,-1
 370 339 l 2,37,38
 376 344 376 344 384 344 c 0,39,40
 396 344 396 344 401 336 c 128,-1,41
 406 328 406 328 406 322 c 2,42,-1
 406 216 l 1,43,0
 428 204 428 204 428 178.5 c 128,-1,1
362 81 m 1,44,-1
 362 275 l 1,45,-1
 340 257 l 2,46,47
 282 211 282 211 208 211 c 1,48,-1
 208 145 l 1,49,50
 282 145 282 145 340 99 c 2,51,-1
 362 81 l 1,44,-1
EndSplineSet
Validated: 33
EndChar

StartChar: h
Encoding: 104 104 46
Width: 459
GlyphClass: 2
Flags: W
LayerCount: 2
Fore
SplineSet
428 178.5 m 128,-1,1
 428 153 428 153 406 140 c 1,2,-1
 406 35 l 2,3,4
 406 28 406 28 401 20 c 128,-1,5
 396 12 396 12 384 12 c 0,6,7
 376 12 376 12 370 17 c 2,8,-1
 312 64 l 2,9,10
 266 101 266 101 208 101 c 2,11,-1
 188 101 l 1,12,13
 186 90 186 90 186 79 c 0,14,15
 186 49 186 49 204 26 c 0,16,17
 210 15 210 15 204 2.5 c 128,-1,18
 198 -10 198 -10 186 -10 c 2,19,-1
 134 -10 l 2,20,21
 120 -10 120 -10 114 2 c 0,22,23
 98 39 98 39 98 79 c 2,24,-1
 98 101 l 1,25,-1
 74 101 l 2,26,27
 56 101 56 101 43 113.5 c 128,-1,28
 30 126 30 126 30 145 c 2,29,-1
 30 211 l 2,30,31
 30 230 30 230 43 242.5 c 128,-1,32
 56 255 56 255 74 255 c 2,33,-1
 208 255 l 2,34,35
 266 255 266 255 312 292 c 2,36,-1
 370 339 l 2,37,38
 376 344 376 344 384 344 c 0,39,40
 396 344 396 344 401 336 c 128,-1,41
 406 328 406 328 406 322 c 2,42,-1
 406 216 l 1,43,0
 428 204 428 204 428 178.5 c 128,-1,1
EndSplineSet
Validated: 33
EndChar

StartChar: i
Encoding: 105 105 47
Width: 398
GlyphClass: 2
Flags: W
LayerCount: 2
Fore
SplineSet
326 11 m 2,0,-1
 72 11 l 2,1,2
 58 11 58 11 48 21 c 128,-1,3
 38 31 38 31 38 45 c 2,4,-1
 38 299 l 2,5,6
 38 313 38 313 48 323 c 128,-1,7
 58 333 58 333 72 333 c 2,8,-1
 326 333 l 2,9,10
 340 333 340 333 350 323 c 128,-1,11
 360 313 360 313 360 299 c 2,12,-1
 360 45 l 2,13,14
 360 31 360 31 350 21 c 128,-1,15
 340 11 340 11 326 11 c 2,0,-1
178 81 m 2,16,-1
 311 214 l 2,17,18
 319 222 319 222 311 230 c 2,19,-1
 295 246 l 2,20,21
 286 255 286 255 278 246 c 2,22,-1
 170 138 l 1,23,-1
 120 189 l 2,24,25
 112 197 112 197 103 189 c 2,26,-1
 87 173 l 2,27,28
 79 164 79 164 87 156 c 2,29,-1
 162 81 l 2,30,31
 170 73 170 73 178 81 c 2,16,-1
EndSplineSet
Validated: 33
EndChar

StartChar: j
Encoding: 106 106 48
Width: 502
GlyphClass: 2
Flags: W
LayerCount: 2
Fore
SplineSet
478 32 m 2,0,1
 486 24 486 24 480 15 c 2,2,-1
 464 -3 l 2,3,4
 458 -12 458 -12 450 -5 c 2,5,-1
 24 322 l 2,6,7
 16 330 16 330 22 339 c 2,8,-1
 38 357 l 2,9,10
 44 366 44 366 54 359 c 2,11,-1
 182 260 l 1,12,-1
 182 292 l 2,13,14
 182 321 182 321 202 341 c 128,-1,15
 222 361 222 361 252 361 c 0,16,17
 270 361 270 361 286 352 c 128,-1,18
 302 343 302 343 311 327 c 128,-1,19
 320 311 320 311 320 292 c 2,20,-1
 320 177 l 2,21,22
 320 167 320 167 316 155 c 1,23,-1
 336 141 l 1,24,25
 344 158 344 158 344 177 c 2,26,-1
 344 212 l 2,27,28
 344 217 344 217 347 220 c 128,-1,29
 350 223 350 223 354 223 c 2,30,-1
 366 223 l 2,31,32
 372 223 372 223 375 220 c 128,-1,33
 378 217 378 217 378 212 c 2,34,-1
 378 177 l 2,35,36
 378 147 378 147 364 119 c 1,37,-1
 478 32 l 2,0,1
308 27 m 2,38,39
 314 27 314 27 317 24 c 128,-1,40
 320 21 320 21 320 16 c 2,41,-1
 320 4 l 2,42,43
 320 -1 320 -1 317 -4 c 128,-1,44
 314 -7 314 -7 308 -7 c 2,45,-1
 194 -7 l 2,46,47
 188 -7 188 -7 185 -4 c 128,-1,48
 182 -1 182 -1 182 4 c 2,49,-1
 182 16 l 2,50,51
 182 21 182 21 185 24 c 128,-1,52
 188 27 188 27 194 27 c 2,53,-1
 234 27 l 1,54,-1
 234 52 l 1,55,56
 186 58 186 58 155 96 c 128,-1,57
 124 134 124 134 124 183 c 2,58,-1
 124 188 l 1,59,-1
 162 158 l 1,60,61
 166 140 166 140 177 124 c 128,-1,62
 188 108 188 108 205 97.5 c 128,-1,63
 222 87 222 87 242 86 c 0,64,65
 246 85 246 85 256 86 c 1,66,-1
 292 57 l 1,67,68
 280 53 280 53 268 52 c 1,69,-1
 268 27 l 1,70,-1
 308 27 l 2,38,39
EndSplineSet
Validated: 33
EndChar

StartChar: k
Encoding: 107 107 49
Width: 426
GlyphClass: 2
Flags: W
LayerCount: 2
Fore
SplineSet
240 71 m 2,0,-1
 240 111 l 2,1,2
 240 114 240 114 238 116 c 128,-1,3
 236 118 236 118 234 118 c 2,4,-1
 192 118 l 2,5,6
 190 118 190 118 188 116 c 128,-1,7
 186 114 186 114 186 111 c 2,8,-1
 186 71 l 2,9,10
 186 68 186 68 188 66 c 128,-1,11
 190 64 190 64 192 63 c 2,12,-1
 234 63 l 2,13,14
 236 63 236 63 238 65.5 c 128,-1,15
 240 68 240 68 240 71 c 2,0,-1
240 150 m 2,16,-1
 244 247 l 2,17,18
 244 250 244 250 242 251 c 0,19,20
 238 253 238 253 236 253 c 2,21,-1
 190 253 l 2,22,23
 188 253 188 253 184 251 c 0,24,25
 182 250 182 250 182 246 c 2,26,-1
 186 150 l 2,27,28
 186 148 186 148 188 146.5 c 128,-1,29
 190 145 190 145 194 145 c 2,30,-1
 232 145 l 2,31,32
 236 145 236 145 238 146 c 128,-1,33
 240 147 240 147 240 150 c 2,16,-1
236 348 m 2,34,-1
 400 49 l 2,35,36
 408 36 408 36 400 23 c 0,37,38
 396 16 396 16 389 12.5 c 128,-1,39
 382 9 382 9 376 9 c 2,40,-1
 50 9 l 2,41,42
 44 9 44 9 37 13 c 128,-1,43
 30 17 30 17 26 23 c 0,44,45
 18 36 18 36 26 49 c 2,46,-1
 190 348 l 2,47,48
 192 354 192 354 199 358 c 128,-1,49
 206 362 206 362 213 362 c 128,-1,50
 220 362 220 362 227 358 c 128,-1,51
 234 354 234 354 236 348 c 2,34,-1
EndSplineSet
Validated: 33
EndChar

StartChar: l
Encoding: 108 108 50
Width: 406
GlyphClass: 2
Flags: W
LayerCount: 2
Fore
SplineSet
266 275 m 0,0,1
 298 275 298 275 346 297 c 0,2,3
 356 302 356 302 366 296 c 128,-1,4
 376 290 376 290 376 277 c 2,5,-1
 376 110 l 2,6,7
 376 98 376 98 368 92 c 0,8,9
 326 64 326 64 284 64 c 0,10,11
 258 64 258 64 222 76 c 128,-1,12
 186 88 186 88 168 88 c 0,13,14
 126 88 126 88 90 72 c 1,15,-1
 90 7 l 2,16,17
 90 0 90 0 85 -5 c 128,-1,18
 80 -10 80 -10 74 -10 c 2,19,-1
 62 -10 l 2,20,21
 56 -10 56 -10 51 -5 c 128,-1,22
 46 0 46 0 46 7 c 2,23,-1
 46 273 l 1,24,25
 30 285 30 285 30 305 c 0,26,27
 30 322 30 322 41 333 c 128,-1,28
 52 344 52 344 70 344 c 0,29,30
 84 343 84 343 95 332.5 c 128,-1,31
 106 322 106 322 106 308 c 2,32,-1
 106 305 l 2,33,34
 106 298 106 298 104 291 c 1,35,36
 126 299 126 299 151 299 c 128,-1,37
 176 299 176 299 212 287 c 128,-1,38
 248 275 248 275 266 275 c 0,0,1
EndSplineSet
Validated: 33
EndChar

StartChar: m
Encoding: 109 109 51
Width: 435
GlyphClass: 2
Flags: W
LayerCount: 2
Fore
SplineSet
218 329 m 128,-1,1
 295 329 295 329 349 285 c 128,-1,2
 403 241 403 241 403 178.5 c 128,-1,3
 403 116 403 116 349 72 c 128,-1,4
 295 28 295 28 218 28 c 0,5,6
 177 28 177 28 140 42 c 1,7,8
 93 5 93 5 38 5 c 0,9,10
 37 5 37 5 35.5 6 c 128,-1,11
 34 7 34 7 33 8 c 0,12,13
 32 12 32 12 34.5 14.5 c 128,-1,14
 37 17 37 17 43 24.5 c 128,-1,15
 49 32 49 32 59 50 c 128,-1,16
 69 68 69 68 74 84 c 1,17,18
 33 125 33 125 33 179 c 0,19,20
 33 241 33 241 87 285 c 128,-1,0
 141 329 141 329 218 329 c 128,-1,1
EndSplineSet
Validated: 1
EndChar

StartChar: n
Encoding: 110 110 52
Width: 472
GlyphClass: 2
Flags: W
LayerCount: 2
Fore
SplineSet
388 232 m 1,0,1
 392 216 392 216 392 201 c 0,2,3
 392 140 392 140 346 93 c 128,-1,4
 300 46 300 46 230 35 c 1,5,6
 260 23 260 23 294 23 c 0,7,8
 326 23 326 23 356 34 c 1,9,10
 386 24 386 24 426 24 c 1,11,12
 412 41 412 41 402 61 c 1,13,14
 440 96 440 96 440 142 c 0,15,16
 440 197 440 197 388 232 c 1,0,1
354 201.5 m 128,-1,18
 354 256 354 256 307 294 c 128,-1,19
 260 332 260 332 193 332 c 128,-1,20
 126 332 126 332 79 294 c 128,-1,21
 32 256 32 256 32 201 c 0,22,23
 32 145 32 145 82 106 c 1,24,25
 70 76 70 76 50 50 c 1,26,27
 116 50 116 50 156 74 c 1,28,29
 174 71 174 71 192 71 c 0,30,31
 260 71 260 71 307 109 c 128,-1,17
 354 147 354 147 354 201.5 c 128,-1,18
EndSplineSet
Validated: 9
EndChar

StartChar: o
Encoding: 111 111 53
Width: 474
GlyphClass: 2
Flags: W
LayerCount: 2
Fore
SplineSet
434 272 m 2,0,1
 434 273 434 273 435 272 c 128,-1,2
 436 271 436 271 436 270 c 2,3,-1
 436 59 l 2,4,5
 436 46 436 46 428 37.5 c 128,-1,6
 420 29 420 29 406 29 c 2,7,-1
 68 29 l 2,8,9
 54 29 54 29 46 37.5 c 128,-1,10
 38 46 38 46 38 59 c 2,11,-1
 38 270 l 2,12,13
 38 271 38 271 39 272 c 128,-1,14
 40 273 40 273 40 272 c 2,15,-1
 144 166 l 1,16,-1
 144 163 l 1,17,-1
 72 86 l 2,18,19
 64 78 64 78 72 69 c 0,20,21
 76 65 76 65 81 65 c 128,-1,22
 86 65 86 65 90 69 c 2,23,-1
 162 146 l 2,24,25
 162 148 162 148 164 146 c 2,26,-1
 182 129 l 2,27,28
 206 105 206 105 236 105 c 0,29,30
 272 105 272 105 292 128 c 2,31,-1
 310 146 l 2,32,33
 312 148 312 148 312 146 c 2,34,-1
 384 69 l 2,35,36
 388 65 388 65 393 65 c 128,-1,37
 398 65 398 65 402 69 c 0,38,39
 410 78 410 78 402 86 c 2,40,-1
 330 163 l 1,41,-1
 330 166 l 1,42,-1
 434 272 l 2,0,1
274 145 m 2,43,44
 260 130 260 130 236 130 c 0,45,46
 214 130 214 130 200 145 c 2,47,-1
 48 299 l 1,48,49
 58 305 58 305 68 305 c 2,50,-1
 406 305 l 2,51,52
 416 305 416 305 426 299 c 1,53,-1
 274 145 l 2,43,44
EndSplineSet
Validated: 33
EndChar

StartChar: p
Encoding: 112 112 54
Width: 412
GlyphClass: 2
Flags: W
LayerCount: 2
Fore
SplineSet
29 245 m 0,0,1
 29 284 29 284 56.5 311.5 c 128,-1,2
 84 339 84 339 123 339 c 0,3,4
 150 339 150 339 172 326 c 128,-1,5
 194 313 194 313 206 291 c 1,6,7
 218 313 218 313 240 326 c 128,-1,8
 262 339 262 339 289 339 c 0,9,10
 328 339 328 339 355.5 311.5 c 128,-1,11
 383 284 383 284 383 245 c 0,12,13
 383 209 383 209 359 182 c 2,14,-1
 230 29 l 2,15,16
 220 18 220 18 206 18 c 128,-1,17
 192 18 192 18 182 29 c 2,18,-1
 53 182 l 2,19,20
 29 209 29 209 29 245 c 0,0,1
EndSplineSet
Validated: 1
EndChar

StartChar: q
Encoding: 113 113 55
Width: 406
GlyphClass: 2
Flags: W
LayerCount: 2
Fore
SplineSet
375 161 m 0,0,1
 375 126 375 126 361.5 94.5 c 128,-1,2
 348 63 348 63 325 40 c 128,-1,3
 302 17 302 17 270 3.5 c 128,-1,4
 238 -10 238 -10 203.5 -10 c 128,-1,5
 169 -10 169 -10 137 3.5 c 128,-1,6
 105 17 105 17 83 40 c 128,-1,7
 61 63 61 63 46 95 c 128,-1,8
 31 127 31 127 32 161 c 0,9,10
 32 202 32 202 50 237.5 c 128,-1,11
 68 273 68 273 101 298 c 0,12,13
 110 305 110 305 122 303.5 c 128,-1,14
 134 302 134 302 141 293 c 0,15,16
 148 283 148 283 146.5 271 c 128,-1,17
 145 259 145 259 135 253 c 0,18,19
 113 236 113 236 101 212 c 128,-1,20
 89 188 89 188 89 161 c 0,21,22
 89 138 89 138 98 117 c 128,-1,23
 107 96 107 96 123 80.5 c 128,-1,24
 139 65 139 65 159.5 56 c 128,-1,25
 180 47 180 47 204 47 c 128,-1,26
 228 47 228 47 248 56 c 128,-1,27
 268 65 268 65 284.5 80.5 c 128,-1,28
 301 96 301 96 309 117 c 128,-1,29
 317 138 317 138 318 161 c 0,30,31
 318 189 318 189 306 212.5 c 128,-1,32
 294 236 294 236 272 252 c 0,33,34
 263 260 263 260 261 271.5 c 128,-1,35
 259 283 259 283 266.5 292.5 c 128,-1,36
 274 302 274 302 285.5 303.5 c 128,-1,37
 297 305 297 305 307 298 c 0,38,39
 339 274 339 274 357 238 c 128,-1,40
 375 202 375 202 375 161 c 0,0,1
232 333 m 2,41,-1
 232 190 l 2,42,43
 232 178 232 178 223.5 169.5 c 128,-1,44
 215 161 215 161 203.5 161 c 128,-1,45
 192 161 192 161 183.5 169.5 c 128,-1,46
 175 178 175 178 175 190 c 2,47,-1
 175 333 l 2,48,49
 175 345 175 345 183.5 353 c 128,-1,50
 192 361 192 361 204 361 c 128,-1,51
 216 361 216 361 224 353 c 128,-1,52
 232 345 232 345 232 333 c 2,41,-1
EndSplineSet
Validated: 33
EndChar

StartChar: r
Encoding: 114 114 56
Width: 447
GlyphClass: 2
Flags: W
LayerCount: 2
Fore
SplineSet
397 222 m 2,0,1
 409 222 409 222 412.5 217.5 c 128,-1,2
 416 213 416 213 415 204 c 2,3,-1
 399 31 l 2,4,5
 398 22 398 22 394 17 c 128,-1,6
 390 12 390 12 378 12 c 2,7,-1
 70 12 l 2,8,9
 50 12 50 12 48 31 c 2,10,-1
 32 204 l 2,11,12
 31 213 31 213 34.5 217.5 c 128,-1,13
 38 222 38 222 50 222 c 2,14,-1
 397 222 l 2,0,1
384 264 m 2,15,-1
 388 249 l 1,16,-1
 64 249 l 1,17,-1
 70 300 l 2,18,19
 71 307 71 307 77.5 312.5 c 128,-1,20
 84 318 84 318 91 318 c 2,21,-1
 154 318 l 2,22,23
 174 318 174 318 187 305 c 2,24,-1
 198 294 l 2,25,26
 210 280 210 280 231 280 c 2,27,-1
 361 280 l 2,28,29
 369 280 369 280 376 275.5 c 128,-1,30
 383 271 383 271 384 264 c 2,15,-1
EndSplineSet
Validated: 1
EndChar

StartChar: s
Encoding: 115 115 57
Width: 504
GlyphClass: 2
Flags: W
LayerCount: 2
Fore
SplineSet
252 237 m 128,-1,1
 226 237 226 237 208.5 219.5 c 128,-1,2
 191 202 191 202 191 176 c 128,-1,3
 191 150 191 150 208.5 132.5 c 128,-1,4
 226 115 226 115 252 115 c 128,-1,5
 278 115 278 115 295.5 132.5 c 128,-1,6
 313 150 313 150 313 176 c 128,-1,7
 313 202 313 202 295.5 219.5 c 128,-1,0
 278 237 278 237 252 237 c 128,-1,1
252 74 m 128,-1,9
 224 74 224 74 201 88 c 128,-1,10
 178 102 178 102 164 125 c 128,-1,11
 150 148 150 148 150 176 c 128,-1,12
 150 204 150 204 164 227 c 128,-1,13
 178 250 178 250 201 264 c 128,-1,14
 224 278 224 278 252 278 c 128,-1,15
 280 278 280 278 303 264 c 128,-1,16
 326 250 326 250 340 227 c 128,-1,17
 354 204 354 204 354 176 c 128,-1,18
 354 148 354 148 340 125 c 128,-1,19
 326 102 326 102 303 88 c 128,-1,8
 280 74 280 74 252 74 c 128,-1,9
252 328 m 128,-1,21
 177 328 177 328 116 285.5 c 128,-1,22
 55 243 55 243 29 176 c 1,23,24
 55 109 55 109 116 66.5 c 128,-1,25
 177 24 177 24 252 24 c 128,-1,26
 327 24 327 24 388 66.5 c 128,-1,27
 449 109 449 109 475 176 c 1,28,29
 449 243 449 243 388 285.5 c 128,-1,20
 327 328 327 328 252 328 c 128,-1,21
EndSplineSet
Validated: 9
EndChar

StartChar: t
Encoding: 116 116 58
Width: 439
GlyphClass: 2
Flags: W
LayerCount: 2
Fore
SplineSet
74 372 m 1,0,1
 72 368 72 368 56 341 c 2,2,-1
 38 311 l 1,3,-1
 38 31 l 1,4,-1
 134 31 l 1,5,-1
 134 -18 l 1,6,-1
 184 -18 l 1,7,-1
 232 31 l 1,8,-1
 292 31 l 1,9,-1
 402 141 l 1,10,-1
 402 372 l 1,11,-1
 74 372 l 1,0,1
354 165 m 1,12,-1
 322 134 l 1,13,-1
 292 104 l 1,14,-1
 232 104 l 1,15,-1
 184 55 l 1,16,-1
 184 104 l 1,17,-1
 110 104 l 1,18,-1
 110 323 l 1,19,-1
 354 323 l 1,20,-1
 354 165 l 1,12,-1
268 274 m 1,21,-1
 286 274 l 1,22,-1
 304 274 l 1,23,-1
 304 177 l 1,24,-1
 268 177 l 1,25,-1
 268 274 l 1,21,-1
196 274 m 1,26,-1
 214 274 l 1,27,-1
 232 274 l 1,28,-1
 232 177 l 1,29,-1
 196 177 l 1,30,-1
 196 274 l 1,26,-1
EndSplineSet
Validated: 9
EndChar

StartChar: u
Encoding: 117 117 59
Width: 422
GlyphClass: 2
Flags: W
LayerCount: 2
Fore
SplineSet
283 218 m 0,0,1
 283 259 283 259 253.5 288.5 c 128,-1,2
 224 318 224 318 183 318.5 c 128,-1,3
 142 319 142 319 112 289 c 128,-1,4
 82 259 82 259 83 218.5 c 128,-1,5
 84 178 84 178 112.5 147.5 c 128,-1,6
 141 117 141 117 183 118 c 128,-1,7
 225 119 225 119 253 147 c 128,-1,8
 281 175 281 175 283 218 c 0,0,1
397 32 m 0,9,10
 397 21 397 21 388.5 12.5 c 128,-1,11
 380 4 380 4 368.5 4 c 128,-1,12
 357 4 357 4 349 12 c 2,13,-1
 272 89 l 1,14,15
 232 61 232 61 183 61 c 0,16,17
 151 61 151 61 122 73.5 c 128,-1,18
 93 86 93 86 72 107 c 128,-1,19
 51 128 51 128 38 157 c 128,-1,20
 25 186 25 186 25.5 218.5 c 128,-1,21
 26 251 26 251 38 279 c 128,-1,22
 50 307 50 307 71.5 329 c 128,-1,23
 93 351 93 351 121.5 363 c 128,-1,24
 150 375 150 375 183 375.5 c 128,-1,25
 216 376 216 376 244 363 c 128,-1,26
 272 350 272 350 294.5 329.5 c 128,-1,27
 317 309 317 309 328 279 c 128,-1,28
 339 249 339 249 340 218 c 0,29,30
 340 169 340 169 313 129 c 1,31,-1
 389 53 l 2,32,33
 397 44 397 44 397 32 c 0,9,10
EndSplineSet
Validated: 33
EndChar

StartChar: v
Encoding: 118 118 60
Width: 407
GlyphClass: 2
Flags: W
LayerCount: 2
Fore
SplineSet
260 175 m 0,0,1
 260 198 260 198 244 215 c 128,-1,2
 228 232 228 232 204 232 c 128,-1,3
 180 232 180 232 163.5 215 c 128,-1,4
 147 198 147 198 146.5 174.5 c 128,-1,5
 146 151 146 151 163 134 c 128,-1,6
 180 117 180 117 203.5 117 c 128,-1,7
 227 117 227 117 244 134 c 128,-1,8
 261 151 261 151 260 175 c 0,0,1
375 199 m 2,9,-1
 375 150 l 2,10,11
 375 147 375 147 373.5 144.5 c 128,-1,12
 372 142 372 142 369 142 c 2,13,-1
 327 135 l 1,14,15
 323 123 323 123 319 115 c 1,16,17
 326 104 326 104 342 84 c 0,18,19
 345 82 345 82 345 79 c 128,-1,20
 345 76 345 76 343 74 c 0,21,22
 337 65 337 65 321 49 c 128,-1,23
 305 33 305 33 300 34 c 0,24,25
 297 34 297 34 294 36 c 2,26,-1
 263 60 l 1,27,28
 253 54 253 54 243 51 c 1,29,30
 239 21 239 21 236 9 c 0,31,32
 235 3 235 3 228 3 c 2,33,-1
 179 3 l 2,34,35
 176 3 176 3 173.5 5 c 128,-1,36
 171 7 171 7 171 10 c 2,37,-1
 164 51 l 1,38,-1
 144 59 l 1,39,-1
 113 35 l 2,40,41
 110 33 110 33 107 33 c 128,-1,42
 104 33 104 33 102 36 c 0,43,44
 74 61 74 61 65 73 c 0,45,46
 63 75 63 75 63 78 c 128,-1,47
 63 81 63 81 65 83 c 0,48,49
 68 88 68 88 76 98 c 128,-1,50
 84 108 84 108 88 114 c 1,51,52
 82 125 82 125 79 136 c 1,53,-1
 38 142 l 2,54,55
 36 143 36 143 34 145 c 128,-1,56
 32 147 32 147 32 150 c 2,57,-1
 32 200 l 2,58,59
 32 203 32 203 34 205 c 128,-1,60
 36 207 36 207 38 208 c 2,61,-1
 80 214 l 1,62,63
 83 224 83 224 88 235 c 1,64,65
 79 247 79 247 64 265 c 0,66,67
 62 268 62 268 62 270.5 c 128,-1,68
 62 273 62 273 64 276 c 0,69,70
 70 284 70 284 86 300 c 128,-1,71
 102 316 102 316 107 316 c 0,72,73
 110 316 110 316 113 314 c 2,74,-1
 144 290 l 1,75,76
 154 295 154 295 164 298 c 1,77,78
 168 329 168 329 171 340 c 0,79,80
 172 346 172 346 179 346 c 2,81,-1
 228 346 l 2,82,83
 231 346 231 346 233.5 344.5 c 128,-1,84
 236 343 236 343 236 340 c 2,85,-1
 242 298 l 1,86,87
 254 295 254 295 262 290 c 1,88,-1
 294 314 l 2,89,90
 296 316 296 316 299.5 316 c 128,-1,91
 303 316 303 316 305 314 c 0,92,93
 334 287 334 287 342 276 c 0,94,95
 344 274 344 274 344 271 c 128,-1,96
 344 268 344 268 342 266 c 2,97,-1
 318 235 l 1,98,99
 324 224 324 224 328 213 c 1,100,-1
 368 207 l 2,101,102
 371 207 371 207 373 204.5 c 128,-1,103
 375 202 375 202 375 199 c 2,9,-1
EndSplineSet
Validated: 33
EndChar

StartChar: w
Encoding: 119 119 61
Width: 402
GlyphClass: 2
Flags: W
LayerCount: 2
Fore
SplineSet
362 263 m 0,0,1
 374 260 374 260 374 226 c 0,2,3
 374 181 374 181 342 149.5 c 128,-1,4
 310 118 310 118 266 118 c 0,5,6
 254 118 254 118 244 120 c 1,7,8
 231 104 231 104 206.5 71.5 c 128,-1,9
 182 39 182 39 161 15 c 0,10,11
 138 -12 138 -12 103 -12 c 0,12,13
 72 -12 72 -12 50 10 c 128,-1,14
 28 32 28 32 28 63 c 0,15,16
 28 98 28 98 54 121 c 0,17,18
 79 142 79 142 111.5 166.5 c 128,-1,19
 144 191 144 191 160 204 c 1,20,21
 158 217 158 217 158 226 c 0,22,23
 158 271 158 271 189.5 302.5 c 128,-1,24
 221 334 221 334 266 334 c 0,25,26
 282 334 282 334 298 329 c 0,27,28
 304 327 304 327 305.5 321 c 128,-1,29
 307 315 307 315 303 311 c 2,30,-1
 245 255 l 1,31,-1
 253 214 l 1,32,-1
 295 205 l 1,33,-1
 352 260 l 2,34,35
 356 265 356 265 362 263 c 0,0,1
103.5 42 m 128,-1,37
 112 42 112 42 118.5 48 c 128,-1,38
 125 54 125 54 125 63 c 128,-1,39
 125 72 125 72 118.5 78.5 c 128,-1,40
 112 85 112 85 103.5 85 c 128,-1,41
 95 85 95 85 88.5 78.5 c 128,-1,42
 82 72 82 72 82 63 c 128,-1,43
 82 54 82 54 88.5 48 c 128,-1,36
 95 42 95 42 103.5 42 c 128,-1,37
EndSplineSet
Validated: 1
EndChar

StartChar: x
Encoding: 120 120 62
Width: 430
GlyphClass: 2
Flags: W
LayerCount: 2
Fore
SplineSet
398 126 m 2,0,1
 406 120 406 120 404.5 112.5 c 128,-1,2
 403 105 403 105 393 103 c 2,3,-1
 360 93 l 2,4,5
 350 91 350 91 343 81.5 c 128,-1,6
 336 72 336 72 337 61 c 2,7,-1
 339 27 l 2,8,9
 340 17 340 17 333 12.5 c 128,-1,10
 326 8 326 8 317 13 c 2,11,-1
 281 31 l 2,12,13
 271 36 271 36 260.5 33 c 128,-1,14
 250 30 250 30 246 20 c 2,15,-1
 227 -17 l 2,16,17
 222 -26 222 -26 214.5 -26.5 c 128,-1,18
 207 -27 207 -27 201 -18 c 2,19,-1
 180 14 l 2,20,21
 165 35 165 35 143 23 c 2,22,-1
 91 -7 l 2,23,24
 82 -13 82 -13 78 -9.5 c 128,-1,25
 74 -6 74 -6 77 4 c 2,26,-1
 100 73 l 2,27,28
 103 83 103 83 98 91.5 c 128,-1,29
 93 100 93 100 83 101 c 2,30,-1
 38 106 l 2,31,32
 28 108 28 108 26 114 c 128,-1,33
 24 120 24 120 32 126 c 2,34,-1
 69 158 l 2,35,36
 77 165 77 165 77 175.5 c 128,-1,37
 77 186 77 186 69 193 c 2,38,-1
 32 225 l 2,39,40
 24 231 24 231 25.5 238.5 c 128,-1,41
 27 246 27 246 37 248 c 2,42,-1
 70 258 l 2,43,44
 80 260 80 260 87.5 269.5 c 128,-1,45
 95 279 95 279 94 290 c 2,46,-1
 91 324 l 2,47,48
 91 335 91 335 97.5 339 c 128,-1,49
 104 343 104 343 113 339 c 2,50,-1
 147 323 l 2,51,52
 157 319 157 319 167.5 322.5 c 128,-1,53
 178 326 178 326 183 335 c 2,54,-1
 202 369 l 2,55,56
 207 378 207 378 215 377.5 c 128,-1,57
 223 377 223 377 228 368 c 2,58,-1
 249 332 l 2,59,60
 254 322 254 322 263.5 319 c 128,-1,61
 273 316 273 316 282 322 c 2,62,-1
 340 358 l 2,63,64
 349 364 349 364 352.5 360.5 c 128,-1,65
 356 357 356 357 352 347 c 2,66,-1
 327 275 l 2,67,68
 323 266 323 266 328 258 c 128,-1,69
 333 250 333 250 344 249 c 2,70,-1
 392 244 l 2,71,72
 403 243 403 243 404.5 237 c 128,-1,73
 406 231 406 231 398 225 c 2,74,-1
 361 193 l 2,75,76
 354 186 354 186 354 175.5 c 128,-1,77
 354 165 354 165 361 158 c 2,78,-1
 398 126 l 2,0,1
236 88 m 1,79,-1
 236 131 l 1,80,-1
 194 131 l 1,81,-1
 194 88 l 1,82,-1
 236 88 l 1,79,-1
236 155 m 1,83,-1
 236 264 l 1,84,-1
 194 264 l 1,85,-1
 194 155 l 1,86,-1
 236 155 l 1,83,-1
EndSplineSet
Validated: 33
EndChar

StartChar: y
Encoding: 121 121 63
Width: 443
GlyphClass: 2
Flags: W
LayerCount: 2
Fore
SplineSet
360 344 m 0,0,1
 361 347 361 347 363.5 347 c 128,-1,2
 366 347 366 347 366 344 c 0,3,4
 372 305 372 305 396 278 c 0,5,6
 403 271 403 271 395 265 c 0,7,8
 380 252 380 252 370 220 c 0,9,10
 369 217 369 217 366 217 c 128,-1,11
 363 217 363 217 362 220 c 0,12,13
 355 248 355 248 333 266 c 0,14,15
 327 272 327 272 333 278 c 0,16,17
 350 297 350 297 360 344 c 0,0,1
180 377 m 2,18,-1
 276 281 l 2,19,20
 281 276 281 276 280.5 269 c 128,-1,21
 280 262 280 262 276 258 c 2,22,-1
 228 210 l 2,23,24
 217 199 217 199 206 210 c 2,25,-1
 109 306 l 2,26,27
 105 311 105 311 105 318 c 128,-1,28
 105 325 105 325 109 329 c 2,29,-1
 158 377 l 2,30,31
 169 388 169 388 180 377 c 2,18,-1
223 154 m 2,32,33
 225 154 225 154 227 152.5 c 128,-1,34
 229 151 229 151 229 148 c 2,35,-1
 229 101 l 2,36,37
 229 98 229 98 227 96 c 128,-1,38
 225 94 225 94 222 94 c 0,39,40
 153 101 153 101 125 143 c 0,41,42
 123 147 123 147 125 150.5 c 128,-1,43
 127 154 127 154 131 154 c 2,44,-1
 223 154 l 2,32,33
135 252 m 2,45,-1
 151 236 l 2,46,47
 157 230 157 230 151 225 c 2,48,-1
 55 128 l 2,49,50
 50 123 50 123 44 128 c 2,51,-1
 28 145 l 2,52,53
 22 150 22 150 28 156 c 2,54,-1
 124 252 l 2,55,56
 130 257 130 257 135 252 c 2,45,-1
247 80 m 2,57,-1
 247 150 l 2,58,59
 247 157 247 157 253 157 c 0,60,61
 257 157 257 157 259.5 159.5 c 128,-1,62
 262 162 262 162 262 165 c 2,63,-1
 262 166 l 2,64,65
 262 172 262 172 268 172 c 2,66,-1
 412 172 l 2,67,68
 418 172 418 172 418 166 c 2,69,-1
 418 131 l 2,70,71
 418 127 418 127 415 125 c 0,72,73
 389 111 389 111 380 80 c 0,74,75
 378 74 378 74 372 74 c 2,76,-1
 253 74 l 2,77,78
 247 74 247 74 247 80 c 2,57,-1
398 2 m 0,79,80
 402 -1 402 -1 402 -6 c 2,81,-1
 402 -11 l 2,82,83
 402 -14 402 -14 400.5 -16 c 128,-1,84
 399 -18 399 -18 396 -18 c 2,85,-1
 357 -18 l 2,86,87
 353 -18 353 -18 351 -14 c 0,88,89
 343 4 343 4 318.5 4 c 128,-1,90
 294 4 294 4 286 -14 c 0,91,92
 284 -18 284 -18 280 -18 c 2,93,-1
 241 -18 l 2,94,95
 235 -18 235 -18 235 -11 c 2,96,-1
 235 -6 l 2,97,98
 235 -1 235 -1 239 2 c 0,99,100
 263 16 263 16 266 53 c 0,101,102
 266 57 266 57 270 57 c 2,103,-1
 367 57 l 2,104,105
 371 57 371 57 371 53 c 0,106,107
 374 16 374 16 398 2 c 0,79,80
EndSplineSet
Validated: 33
EndChar

StartChar: z
Encoding: 122 122 64
Width: 384
GlyphClass: 2
Flags: W
LayerCount: 2
Fore
SplineSet
80 369 m 0,0,1
 86 370 86 370 216 371 c 0,2,3
 345 371 345 371 348 369 c 0,4,5
 355 367 355 367 357 361 c 0,6,7
 359 357 359 357 359 228 c 128,-1,8
 359 99 359 99 357 95 c 128,-1,9
 355 91 355 91 354 89 c 0,10,11
 348 83 348 83 351 47 c 0,12,13
 352 34 352 34 354 31 c 0,14,15
 359 26 359 26 359 13 c 0,16,17
 359 -4 359 -4 349 -9 c 0,18,19
 346 -10 346 -10 216 -10 c 2,20,-1
 86 -10 l 1,21,-1
 78 -8 l 2,22,23
 57 -3 57 -3 43 12 c 0,24,25
 29 28 29 28 26 50 c 0,26,27
 25 57 25 57 25 185 c 2,28,-1
 25 312 l 1,29,-1
 27 319 l 2,30,31
 33 338 33 338 47 351.5 c 128,-1,32
 61 365 61 365 80 369 c 0,0,1
197 318 m 0,33,34
 196 321 196 321 184 318 c 0,35,36
 169 316 169 316 155 308 c 0,37,38
 149 304 149 304 139 294.5 c 128,-1,39
 129 285 129 285 125 278 c 0,40,41
 119 267 119 267 116 257 c 1,42,43
 116 257 116 257 119 256 c 0,44,45
 129 253 129 253 157 251 c 2,46,-1
 169 250 l 1,47,-1
 171 252 l 2,48,49
 174 255 174 255 174 256 c 0,50,51
 174 259 174 259 187 265 c 0,52,53
 191 266 191 266 191.5 268.5 c 128,-1,54
 192 271 192 271 194 285 c 0,55,56
 195 299 195 299 197 307 c 0,57,58
 198 317 198 317 197 318 c 0,33,34
235 312 m 0,59,60
 226 316 226 316 224.5 316 c 128,-1,61
 223 316 223 316 222 312 c 0,62,63
 218 284 218 284 217 274 c 0,64,65
 217 265 217 265 217 264 c 128,-1,66
 217 263 217 263 221 260 c 0,67,68
 227 255 227 255 233 244 c 0,69,70
 234 241 234 241 247 240 c 0,71,72
 257 239 257 239 270 237 c 0,73,74
 282 235 282 235 283 235.5 c 128,-1,75
 284 236 284 236 283.5 245.5 c 128,-1,76
 283 255 283 255 280 263 c 0,77,78
 272 282 272 282 257 297 c 0,79,80
 247 306 247 306 235 312 c 0,59,60
140 225 m 0,81,82
 117 229 117 229 115 229 c 0,83,84
 113 230 113 230 113 229 c 128,-1,85
 113 228 113 228 113 224 c 0,86,87
 116 197 116 197 136 175 c 0,88,89
 150 158 150 158 167 153 c 0,90,91
 168 153 168 153 169.5 152.5 c 128,-1,92
 171 152 171 152 172.5 151.5 c 128,-1,93
 174 151 174 151 174 151 c 2,94,95
 177 150 177 150 177.5 152 c 128,-1,96
 178 154 178 154 182 177 c 2,97,-1
 185 199 l 1,98,-1
 183 201 l 2,99,100
 173 208 173 208 167 217 c 0,101,102
 164 222 164 222 164 222 c 1,103,104
 153 224 153 224 140 225 c 0,81,82
259 213 m 0,105,106
 235 216 235 216 231 215 c 0,107,108
 230 215 230 215 228 211 c 0,109,110
 223 204 223 204 212 200 c 0,111,112
 208 198 208 198 208 195 c 0,113,114
 207 192 207 192 203 158 c 0,115,116
 202 148 202 148 202.5 147.5 c 128,-1,117
 203 147 203 147 211 148 c 0,118,119
 234 151 234 151 252 165 c 0,120,121
 258 169 258 169 264.5 176 c 128,-1,122
 271 183 271 183 271 185 c 0,123,124
 271 186 271 186 272 187 c 0,125,126
 273 187 273 187 277 195 c 128,-1,127
 281 203 281 203 281 206 c 0,128,129
 282 209 282 209 280.5 210 c 128,-1,130
 279 211 279 211 275 211 c 256,131,132
 271 211 271 211 259 213 c 0,105,106
308 61 m 1,133,-1
 308 84 l 1,134,-1
 200 84 l 2,135,136
 112 84 112 84 99.5 83.5 c 128,-1,137
 87 83 87 83 82 79 c 0,138,139
 74 72 74 72 73 62.5 c 128,-1,140
 72 53 72 53 79 46 c 0,141,142
 82 42 82 42 87 40 c 2,143,-1
 91 37 l 1,144,-1
 200 37 l 1,145,-1
 308 37 l 1,146,-1
 308 61 l 1,133,-1
EndSplineSet
Validated: 33
EndChar

StartChar: braceleft
Encoding: 123 123 65
Width: 418
GlyphClass: 2
Flags: W
LayerCount: 2
Fore
SplineSet
315 232 m 128,-1,1
 315 250 315 250 302 262 c 128,-1,2
 289 274 289 274 272 274.5 c 128,-1,3
 255 275 255 275 242 262 c 128,-1,4
 229 249 229 249 229 231.5 c 128,-1,5
 229 214 229 214 242 201.5 c 128,-1,6
 255 189 255 189 272 188.5 c 128,-1,7
 289 188 289 188 302 201 c 128,-1,0
 315 214 315 214 315 232 c 128,-1,1
179 100 m 0,8,9
 179 82 179 82 166 69 c 128,-1,10
 153 56 153 56 135 56 c 0,11,12
 121 56 121 56 111 63 c 128,-1,13
 101 70 101 70 95 80 c 1,14,15
 107 75 107 75 117 71 c 0,16,17
 131 66 131 66 144 71.5 c 128,-1,18
 157 77 157 77 163 90.5 c 128,-1,19
 169 104 169 104 163 117 c 128,-1,20
 157 130 157 130 143 136 c 2,21,-1
 125 144 l 1,22,-1
 135 144 l 2,23,24
 153 144 153 144 166 131.5 c 128,-1,25
 179 119 179 119 179 100 c 0,8,9
381 283 m 2,26,-1
 381 69 l 2,27,28
 381 42 381 42 362 23.5 c 128,-1,29
 343 5 343 5 315 4 c 2,30,-1
 101 4 l 2,31,32
 75 4 75 4 56 23.5 c 128,-1,33
 37 43 37 43 37 69 c 2,34,-1
 37 103 l 1,35,-1
 75 88 l 1,36,37
 81 67 81 67 97 53.5 c 128,-1,38
 113 40 113 40 135 40 c 128,-1,39
 157 40 157 40 174 56 c 128,-1,40
 191 72 191 72 195 94 c 1,41,-1
 271 151 l 1,42,43
 305 151 305 151 328 174.5 c 128,-1,44
 351 198 351 198 351 231.5 c 128,-1,45
 351 265 351 265 328 288 c 128,-1,46
 305 311 305 311 271 312 c 0,47,48
 239 312 239 312 215 288.5 c 128,-1,49
 191 265 191 265 191 232 c 1,50,-1
 141 160 l 1,51,-1
 135 160 l 2,52,53
 117 160 117 160 103 152 c 1,54,-1
 37 179 l 1,55,-1
 37 283 l 2,56,57
 37 310 37 310 56 328.5 c 128,-1,58
 75 347 75 347 101 348 c 2,59,-1
 315 348 l 2,60,61
 343 348 343 348 362 328.5 c 128,-1,62
 381 309 381 309 381 283 c 2,26,-1
325 231 m 0,63,64
 325 209 325 209 309 193.5 c 128,-1,65
 293 178 293 178 271 177.5 c 128,-1,66
 249 177 249 177 233 193.5 c 128,-1,67
 217 210 217 210 217 231.5 c 128,-1,68
 217 253 217 253 233 269.5 c 128,-1,69
 249 286 249 286 271 285 c 0,70,71
 293 285 293 285 309 269.5 c 128,-1,72
 325 254 325 254 325 231 c 0,63,64
EndSplineSet
Validated: 33
EndChar

StartChar: bar
Encoding: 124 124 66
Width: 322
GlyphClass: 2
Flags: W
LayerCount: 2
Fore
SplineSet
90 367 m 1,0,-1
 90 383 l 1,1,-1
 101 383 l 1,2,-1
 112 383 l 1,3,-1
 112 367 l 1,4,-1
 112 350 l 1,5,-1
 101 350 l 1,6,-1
 90 350 l 1,7,-1
 90 367 l 1,0,-1
57 331 m 256,8,9
 59 332 59 332 101 332 c 0,10,11
 144 332 144 332 147 331 c 0,12,13
 153 328 153 328 153 316 c 2,14,-1
 153 309 l 1,15,-1
 101 309 l 1,16,-1
 49 309 l 1,17,-1
 50 317 l 2,18,19
 50 325 50 325 52 328 c 0,20,21
 55 330 55 330 57 331 c 256,8,9
33 293 m 0,22,23
 36 295 36 295 102 295 c 2,24,-1
 169 294 l 1,25,-1
 172 292 l 1,26,27
 172 292 172 292 173 291 c 0,28,29
 177 289 177 289 177.5 274 c 128,-1,30
 178 259 178 259 178 172 c 0,31,32
 178 153 178 153 178 142.5 c 128,-1,33
 178 132 178 132 178 113 c 0,34,35
 178 26 178 26 177.5 11 c 128,-1,36
 177 -4 177 -4 173 -6 c 0,37,38
 172 -6 172 -6 172 -7 c 2,39,-1
 169 -9 l 1,40,-1
 101 -9 l 1,41,-1
 34 -9 l 1,42,-1
 31 -7 l 2,43,44
 31 -6 31 -6 30 -6 c 0,45,46
 26 -4 26 -4 25.5 11 c 128,-1,47
 25 26 25 26 25 113 c 0,48,49
 25 133 25 133 25 144 c 2,50,-1
 25 286 l 1,51,-1
 27 289 l 2,52,53
 30 292 30 292 33 293 c 0,22,23
101 195 m 2,54,55
 101 195 101 195 98 195.5 c 128,-1,56
 95 196 95 196 93 195 c 0,57,58
 82 193 82 193 75 189 c 0,59,60
 63 181 63 181 56 169 c 0,61,62
 50 159 50 159 52 157.5 c 128,-1,63
 54 156 54 156 75 154 c 2,64,-1
 84 153 l 1,65,-1
 86 156 l 2,66,67
 89 159 89 159 93 161 c 2,68,-1
 98 164 l 1,69,-1
 100 179 l 2,70,71
 101 194 101 194 101 195 c 2,54,55
129 189 m 0,72,73
 117 195 117 195 117 193 c 0,74,75
 113 181 113 181 113 166 c 0,76,77
 113 161 113 161 115.5 159 c 128,-1,78
 118 157 118 157 121 153 c 2,79,-1
 124 148 l 1,80,-1
 137 146 l 2,81,82
 148 145 148 145 153 144 c 0,83,84
 155 144 155 144 154 151 c 0,85,86
 154 166 154 166 140 180 c 0,87,88
 133 187 133 187 129 189 c 0,72,73
68 138 m 0,89,90
 65 139 65 139 61 139.5 c 128,-1,91
 57 140 57 140 55 140 c 128,-1,92
 53 140 53 140 52 140 c 0,93,94
 50 141 50 141 50 140.5 c 128,-1,95
 50 140 50 140 50 137 c 0,96,97
 50 128 50 128 57 116 c 0,98,99
 62 106 62 106 73 99 c 0,100,101
 89 88 89 88 89 93 c 0,102,103
 89 94 89 94 91 108 c 2,104,-1
 94 122 l 1,105,-1
 88 127 l 2,106,107
 83 132 83 132 81.5 134 c 128,-1,108
 80 136 80 136 68 138 c 0,89,90
135.5 131 m 128,-1,110
 126 132 126 132 124 132 c 128,-1,111
 122 132 122 132 119 128 c 0,112,113
 114 124 114 124 111 123 c 2,114,-1
 108 121 l 1,115,-1
 107 111 l 2,116,117
 105 101 105 101 105 96 c 2,118,-1
 104 91 l 1,119,-1
 108 91 l 2,120,121
 112 91 112 91 117 92 c 0,122,123
 139 99 139 99 149 118 c 0,124,125
 153 127 153 127 152.5 128.5 c 128,-1,126
 152 130 152 130 149 130 c 0,127,109
 145 130 145 130 135.5 131 c 128,-1,110
225 203 m 128,-1,129
 227 205 227 205 228 205 c 128,-1,130
 229 205 229 205 241 200 c 2,131,-1
 252 196 l 1,132,-1
 253 186 l 2,133,134
 253 176 253 176 251 174 c 0,135,136
 249 173 249 173 237.5 173 c 128,-1,137
 226 173 226 173 224.5 174.5 c 128,-1,138
 223 176 223 176 223 188.5 c 128,-1,128
 223 201 223 201 225 203 c 128,-1,129
288 204 m 0,139,140
 295 205 295 205 296 202 c 0,141,142
 297 198 297 198 290 196 c 0,143,144
 286 196 286 196 273.5 192.5 c 128,-1,145
 261 189 261 189 259.5 190.5 c 128,-1,146
 258 192 258 192 258.5 193.5 c 128,-1,147
 259 195 259 195 272 199 c 0,148,149
 286 203 286 203 288 204 c 0,139,140
261 183 m 128,-1,151
 263 185 263 185 264 184.5 c 128,-1,152
 265 184 265 184 280 180.5 c 128,-1,153
 295 177 295 177 296 175 c 0,154,155
 297 174 297 174 296.5 172 c 128,-1,156
 296 170 296 170 294.5 169.5 c 128,-1,157
 293 169 293 169 276.5 173 c 128,-1,158
 260 177 260 177 259.5 179 c 128,-1,150
 259 181 259 181 261 183 c 128,-1,151
214 166.5 m 128,-1,160
 216 168 216 168 238 168 c 0,161,162
 258 168 258 168 261 167 c 128,-1,163
 264 166 264 166 264 159 c 0,164,165
 264 154 264 154 263 152.5 c 128,-1,166
 262 151 262 151 238 151 c 0,167,168
 217 151 217 151 214.5 152 c 128,-1,169
 212 153 212 153 212 160 c 0,170,159
 212 165 212 165 214 166.5 c 128,-1,160
214 144 m 0,171,172
 217 145 217 145 230.5 145.5 c 128,-1,173
 244 146 244 146 250 145 c 0,174,175
 270 142 270 142 278 124 c 2,176,-1
 281 119 l 1,177,-1
 281 58 l 1,178,-1
 281 -2 l 1,179,-1
 279 -5 l 1,180,-1
 276 -8 l 1,181,-1
 239 -8 l 2,182,183
 208 -8 208 -8 203 -7.5 c 128,-1,184
 198 -7 198 -7 196 -3 c 0,185,186
 195 -1 195 -1 195 56 c 0,187,188
 195 102 195 102 195.5 112 c 128,-1,189
 196 122 196 122 200 129 c 0,190,191
 206 141 206 141 214 144 c 0,171,172
EndSplineSet
Validated: 33
EndChar

StartChar: F
Encoding: 70 70 67
Width: 452
Flags: W
LayerCount: 2
Fore
SplineSet
47 319 m 0,0,1
 59 326 59 326 226 326 c 128,-1,2
 393 326 393 326 405 320 c 0,3,4
 421 311 421 311 424 291.5 c 128,-1,5
 427 272 427 272 427 181 c 128,-1,6
 427 90 427 90 424 70.5 c 128,-1,7
 421 51 421 51 405 42 c 0,8,9
 393 36 393 36 226 36 c 128,-1,10
 59 36 59 36 47 42 c 0,11,12
 31 51 31 51 28 70.5 c 128,-1,13
 25 90 25 90 25 181 c 0,14,15
 25 231 25 231 25 252.5 c 128,-1,16
 25 274 25 274 28 290.5 c 128,-1,17
 31 307 31 307 34 311 c 128,-1,18
 37 315 37 315 47 319 c 0,0,1
401 295 m 0,19,20
 397 301 397 301 373 302 c 128,-1,21
 349 303 349 303 226 303 c 128,-1,22
 103 303 103 303 79 302 c 128,-1,23
 55 301 55 301 51 295 c 0,24,25
 47 288 47 288 47 202 c 128,-1,26
 47 116 47 116 51 108 c 0,27,28
 55 103 55 103 79 102 c 128,-1,29
 103 101 103 101 226 101 c 128,-1,30
 349 101 349 101 373 102 c 128,-1,31
 397 103 397 103 401 108 c 0,32,33
 405 116 405 116 405 202 c 128,-1,34
 405 288 405 288 401 295 c 0,19,20
287 84 m 0,35,36
 283 90 283 90 227 90 c 0,37,38
 183 90 183 90 174 86.5 c 128,-1,39
 165 83 165 83 165 66 c 2,40,-1
 167 54 l 1,41,-1
 227 54 l 1,42,-1
 289 54 l 1,43,-1
 289 66 l 2,44,45
 291 79 291 79 287 84 c 0,35,36
359 80 m 256,46,47
 355 85 355 85 347 85.5 c 128,-1,48
 339 86 339 86 333 81 c 0,49,50
 325 72 325 72 332 61 c 128,-1,51
 339 50 339 50 351 54 c 0,52,53
 359 56 359 56 361 65.5 c 128,-1,54
 363 75 363 75 359 80 c 256,46,47
329 276 m 128,-1,56
 337 284 337 284 345 284 c 0,57,58
 355 284 355 284 363 276 c 128,-1,59
 371 268 371 268 371 260 c 256,60,61
 371 252 371 252 363 243 c 128,-1,62
 355 234 355 234 347 234 c 0,63,64
 341 234 341 234 331 238 c 0,65,66
 323 242 323 242 289 227 c 0,67,68
 259 212 259 212 257 204 c 128,-1,69
 255 196 255 196 277 180 c 0,70,71
 291 171 291 171 297 169 c 128,-1,72
 303 167 303 167 313 168 c 0,73,74
 327 170 327 170 335 162 c 128,-1,75
 343 154 343 154 343 146 c 128,-1,76
 343 138 343 138 335 129 c 128,-1,77
 327 120 327 120 319 120 c 0,78,79
 309 120 309 120 302 128 c 128,-1,80
 295 136 295 136 295 144 c 0,81,82
 295 154 295 154 273 169 c 0,83,84
 259 179 259 179 253 181.5 c 128,-1,85
 247 184 247 184 237 182 c 0,86,87
 227 181 227 181 223 182.5 c 128,-1,88
 219 184 219 184 213 190 c 0,89,90
 207 197 207 197 201 198.5 c 128,-1,91
 195 200 195 200 173 200 c 0,92,93
 153 200 153 200 147 198.5 c 128,-1,94
 141 197 141 197 135 190 c 0,95,96
 117 171 117 171 101 189 c 0,97,98
 85 203 85 203 99 222 c 0,99,100
 105 231 105 231 116 230.5 c 128,-1,101
 127 230 127 230 137 221 c 0,102,103
 143 214 143 214 149 212.5 c 128,-1,104
 155 211 155 211 175 211 c 128,-1,105
 195 211 195 211 201 212.5 c 128,-1,106
 207 214 207 214 211 221 c 0,107,108
 225 238 225 238 245 227 c 0,109,110
 253 223 253 223 287 238.5 c 128,-1,111
 321 254 321 254 321 262 c 0,112,55
 321 268 321 268 329 276 c 128,-1,56
EndSplineSet
Validated: 33
EndChar

StartChar: G
Encoding: 71 71 68
Width: 440
Flags: W
LayerCount: 2
Fore
SplineSet
325 352 m 2,0,-1
 325 177 l 1,1,-1
 209 60 l 2,2,3
 202 54 202 54 200 45 c 2,4,-1
 197 28 l 1,5,-1
 74 28 l 2,6,7
 67 28 67 28 61.5 33.5 c 128,-1,8
 56 39 56 39 56 46 c 2,9,-1
 56 82 l 1,10,-1
 39 82 l 2,11,12
 33 82 33 82 29 86.5 c 128,-1,13
 25 91 25 91 25 96 c 2,14,-1
 25 121 l 2,15,16
 25 126 25 126 29 130 c 128,-1,17
 33 134 33 134 39 134 c 2,18,-1
 56 134 l 1,19,-1
 56 173 l 1,20,-1
 39 173 l 2,21,22
 33 173 33 173 29 177 c 128,-1,23
 25 181 25 181 25 187 c 2,24,-1
 25 211 l 2,25,26
 25 217 25 217 29 221 c 128,-1,27
 33 225 33 225 39 225 c 2,28,-1
 56 225 l 1,29,-1
 56 263 l 1,30,-1
 39 263 l 2,31,32
 33 263 33 263 29 267.5 c 128,-1,33
 25 272 25 272 25 277 c 2,34,-1
 25 302 l 2,35,36
 25 307 25 307 29 311 c 128,-1,37
 33 315 33 315 39 315 c 2,38,-1
 56 315 l 1,39,-1
 56 352 l 2,40,41
 56 359 56 359 61.5 364.5 c 128,-1,42
 67 370 67 370 74 370 c 2,43,-1
 307 370 l 2,44,45
 314 370 314 370 319.5 364.5 c 128,-1,46
 325 359 325 359 325 352 c 2,0,-1
224 142 m 2,47,48
 234 142 234 142 234 152 c 128,-1,49
 234 162 234 162 224 162 c 2,50,-1
 157 162 l 2,51,52
 147 162 147 162 147 152 c 128,-1,53
 147 142 147 142 157 142 c 2,54,-1
 224 142 l 2,47,48
247 188 m 2,55,56
 251 188 251 188 254 191 c 128,-1,57
 257 194 257 194 257 198 c 0,58,59
 257 209 257 209 247 209 c 2,60,-1
 135 209 l 2,61,62
 125 209 125 209 125 198.5 c 128,-1,63
 125 188 125 188 135 188 c 2,64,-1
 247 188 l 2,55,56
260 248 m 2,65,-1
 260 297 l 2,66,67
 260 305 260 305 252 305 c 2,68,-1
 129 305 l 2,69,70
 121 305 121 305 121 297 c 2,71,-1
 121 248 l 2,72,73
 121 239 121 239 129 239 c 2,74,-1
 252 239 l 2,75,76
 260 239 260 239 260 248 c 2,65,-1
251 69 m 1,77,-1
 339 157 l 1,78,-1
 379 118 l 1,79,-1
 290 30 l 1,80,-1
 251 69 l 1,77,-1
225 43 m 2,81,-1
 234 52 l 1,82,-1
 273 13 l 1,83,-1
 264 4 l 2,84,85
 262 3 262 3 260 2 c 2,86,-1
 225 -6 l 2,87,88
 221 -7 221 -7 217.5 -4 c 128,-1,89
 214 -1 214 -1 215 4 c 2,90,-1
 223 39 l 2,91,92
 223 41 223 41 225 43 c 2,81,-1
412 163 m 2,93,94
 418 157 418 157 411 152 c 2,95,-1
 394 135 l 1,96,-1
 356 174 l 1,97,-1
 372 191 l 2,98,99
 378 197 378 197 384 191 c 2,100,-1
 412 163 l 2,93,94
EndSplineSet
Validated: 1
EndChar

StartChar: H
Encoding: 72 72 69
Width: 434
Flags: W
LayerCount: 2
Fore
SplineSet
33 234 m 2,0,-1
 135 285 l 1,1,-1
 135 35 l 1,2,-1
 45 -10 l 2,3,4
 42 -11 42 -11 39 -11 c 0,5,6
 35 -11 35 -11 31 -9 c 0,7,8
 25 -5 25 -5 25 2 c 2,9,-1
 25 222 l 2,10,11
 25 230 25 230 33 234 c 2,0,-1
162 285 m 1,12,-1
 190 271 l 1,13,14
 192 214 192 214 244 151 c 1,15,-1
 244 -6 l 1,16,-1
 162 35 l 1,17,-1
 162 285 l 1,12,-1
339 108 m 0,18,19
 362 128 362 128 381 151 c 1,20,-1
 381 57 l 2,21,22
 381 49 381 49 374 46 c 2,23,-1
 272 -6 l 1,24,-1
 272 122 l 1,25,26
 281 112 281 112 287 108 c 0,27,28
 298 98 298 98 313 98.5 c 128,-1,29
 328 99 328 99 339 108 c 0,18,19
217 277 m 0,30,31
 217 316 217 316 245 344.5 c 128,-1,32
 273 373 273 373 313 373 c 128,-1,33
 353 373 353 373 381 344.5 c 128,-1,34
 409 316 409 316 409 277 c 0,35,36
 409 256 409 256 400 233 c 128,-1,37
 391 210 391 210 379.5 193.5 c 128,-1,38
 368 177 368 177 353.5 160.5 c 128,-1,39
 339 144 339 144 332.5 138.5 c 128,-1,40
 326 133 326 133 322 129 c 0,41,42
 318 126 318 126 313 126 c 128,-1,43
 308 126 308 126 304 129 c 0,44,45
 299 133 299 133 293 138.5 c 128,-1,46
 287 144 287 144 272 160.5 c 128,-1,47
 257 177 257 177 246 193.5 c 128,-1,48
 235 210 235 210 226 233 c 128,-1,49
 217 256 217 256 217 277 c 0,30,31
313 236 m 128,-1,51
 330 236 330 236 342 248 c 128,-1,52
 354 260 354 260 354 277 c 128,-1,53
 354 294 354 294 342 306 c 128,-1,54
 330 318 330 318 313 318 c 128,-1,55
 296 318 296 318 284 306 c 128,-1,56
 272 294 272 294 272 277 c 128,-1,57
 272 260 272 260 284 248 c 128,-1,50
 296 236 296 236 313 236 c 128,-1,51
EndSplineSet
Validated: 33
EndChar

StartChar: I
Encoding: 73 73 70
Width: 406
Flags: W
LayerCount: 2
Fore
SplineSet
25 29 m 2,0,-1
 25 240 l 2,1,2
 25 248 25 248 31 253.5 c 128,-1,3
 37 259 37 259 45 259 c 2,4,-1
 91 259 l 2,5,6
 99 259 99 259 105 253.5 c 128,-1,7
 111 248 111 248 111 240 c 2,8,-1
 111 29 l 2,9,10
 111 21 111 21 105 15 c 128,-1,11
 99 9 99 9 91 9 c 2,12,-1
 45 9 l 2,13,14
 37 9 37 9 31 15 c 128,-1,15
 25 21 25 21 25 29 c 2,0,-1
163 29 m 2,16,-1
 163 172 l 2,17,18
 163 180 163 180 168 186 c 128,-1,19
 173 192 173 192 181 192 c 2,20,-1
 229 192 l 2,21,22
 237 192 237 192 242 186 c 128,-1,23
 247 180 247 180 247 172 c 2,24,-1
 247 29 l 2,25,26
 247 21 247 21 242 15.5 c 128,-1,27
 237 10 237 10 229 10 c 2,28,-1
 181 10 l 2,29,30
 173 10 173 10 168 15.5 c 128,-1,31
 163 21 163 21 163 29 c 2,16,-1
295 29 m 2,32,-1
 295 332 l 2,33,34
 295 340 295 340 301 346 c 128,-1,35
 307 352 307 352 315 352 c 2,36,-1
 361 352 l 2,37,38
 369 352 369 352 375 346 c 128,-1,39
 381 340 381 340 381 332 c 2,40,-1
 381 29 l 2,41,42
 381 21 381 21 375 15 c 128,-1,43
 369 9 369 9 361 9 c 2,44,-1
 315 9 l 2,45,46
 307 9 307 9 301 15 c 128,-1,47
 295 21 295 21 295 29 c 2,32,-1
EndSplineSet
Validated: 1
EndChar

StartChar: K
Encoding: 75 75 71
Width: 383
Flags: W
LayerCount: 2
Fore
SplineSet
36 355 m 0,0,1
 41 359 41 359 45 358 c 0,2,3
 50 357 50 357 147 273 c 2,4,-1
 244 189 l 1,5,-1
 230 173 l 2,6,7
 216 157 216 157 214 157 c 256,8,9
 212 157 212 157 184.5 180 c 128,-1,10
 157 203 157 203 156 206 c 0,11,12
 156 208 156 208 162 214 c 0,13,14
 167 218 167 218 169.5 217 c 128,-1,15
 172 216 172 216 184 206 c 2,16,-1
 200 193 l 1,17,-1
 183 210 l 2,18,19
 165 226 165 226 164 232 c 0,20,21
 161 240 161 240 116 279 c 0,22,23
 70 319 70 319 64 317 c 0,24,25
 61 316 61 316 60 315 c 128,-1,26
 59 314 59 314 59 313 c 0,27,28
 61 311 61 311 55 304 c 0,29,30
 51 298 51 298 49 298 c 128,-1,31
 47 298 47 298 42 302 c 0,32,33
 36 308 36 308 37 318 c 0,34,35
 37 328 37 328 35 338 c 0,36,37
 33 349 33 349 36 355 c 0,0,1
214 310 m 2,38,-1
 245 356 l 1,39,-1
 289 356 l 2,40,41
 321 356 321 356 328.5 355 c 128,-1,42
 336 354 336 354 341 348 c 0,43,44
 348 341 348 341 348 335 c 0,45,46
 348 330 348 330 354 294 c 2,47,-1
 360 258 l 1,48,-1
 318 221 l 2,49,50
 276 184 276 184 271 184 c 0,51,52
 268 185 268 185 253 198 c 128,-1,53
 238 211 238 211 238 214 c 0,54,55
 238 218 238 218 255 233 c 0,56,57
 260 237 260 237 263.5 241 c 128,-1,58
 267 245 267 245 268.5 247.5 c 128,-1,59
 270 250 270 250 269 250 c 0,60,61
 266 252 266 252 263 250 c 0,62,63
 259 248 259 248 255 252 c 128,-1,64
 251 256 251 256 251 262 c 0,65,66
 251 267 251 267 245 266 c 0,67,68
 240 265 240 265 240 261 c 0,69,70
 240 256 240 256 229 243 c 2,71,-1
 218 229 l 1,72,-1
 200 244 l 2,73,74
 183 258 183 258 183 262 c 0,75,76
 183 264 183 264 214 310 c 2,38,-1
59 306 m 0,77,78
 60 307 60 307 61 308 c 0,79,80
 66 315 66 315 71.5 312 c 128,-1,81
 77 309 77 309 107 283 c 0,82,83
 114 277 114 277 118 273 c 0,84,85
 151 244 151 244 159 233 c 128,-1,86
 167 222 167 222 159 214 c 0,87,88
 153 208 153 208 139 208 c 0,89,90
 129 209 129 209 122 214.5 c 128,-1,91
 115 220 115 220 91 245 c 0,92,93
 56 280 56 280 54 288 c 0,94,95
 51 295 51 295 59 306 c 0,77,78
238 250 m 0,96,97
 246 258 246 258 246 258 c 2,98,99
 247 258 247 258 253 251 c 2,100,-1
 260 243 l 1,101,-1
 244 225 l 1,102,-1
 227 206 l 1,103,-1
 220 214 l 2,104,105
 213 221 213 221 215 223 c 128,-1,106
 217 225 217 225 225 220 c 2,107,-1
 234 215 l 1,108,-1
 226 221 l 2,109,110
 220 226 220 226 221.5 229.5 c 128,-1,111
 223 233 223 233 238 250 c 0,96,97
230 169 m 256,112,113
 246 187 246 187 248 187 c 0,114,115
 254 185 254 185 280.5 158.5 c 128,-1,116
 307 132 307 132 313 122 c 0,117,118
 324 104 324 104 324 100 c 128,-1,119
 324 96 324 96 311 89 c 0,120,121
 296 80 296 80 281 79 c 128,-1,122
 266 78 266 78 259.5 86 c 128,-1,123
 253 94 253 94 255 105 c 0,124,125
 257 113 257 113 254 116.5 c 128,-1,126
 251 120 251 120 235 132 c 0,127,128
 214 148 214 148 214 150 c 0,129,130
 214 151 214 151 230 169 c 256,112,113
270 161 m 0,131,132
 258 172 258 172 256 172 c 0,133,134
 255 172 255 172 249 166 c 0,135,136
 246 162 246 162 247 160 c 128,-1,137
 248 158 248 158 258 149 c 0,138,139
 279 134 279 134 281 146 c 0,140,141
 281 150 281 150 270 161 c 0,131,132
274 102 m 0,142,143
 267 108 267 108 265 107.5 c 128,-1,144
 263 107 263 107 260 102 c 0,145,146
 255 93 255 93 262 88.5 c 128,-1,147
 269 84 269 84 276 91 c 0,148,149
 280 95 280 95 279.5 96.5 c 128,-1,150
 279 98 279 98 274 102 c 0,142,143
283 87 m 0,151,152
 285 90 285 90 282 89 c 0,153,154
 281 88 281 88 278 87 c 0,155,156
 274 83 274 83 277.5 83 c 128,-1,157
 281 83 281 83 283 87 c 0,151,152
152 154 m 0,158,159
 171 174 171 174 175.5 177 c 128,-1,160
 180 180 180 180 185 176 c 0,161,162
 192 172 192 172 192 169 c 0,163,164
 192 159 192 159 115 76 c 0,165,166
 75 33 75 33 65 14 c 0,167,168
 54 -5 54 -5 48 -7 c 0,169,170
 43 -8 43 -8 35.5 -4 c 128,-1,171
 28 0 28 0 25 6 c 0,172,173
 21 13 21 13 25.5 19 c 128,-1,174
 30 25 30 25 45 37 c 0,175,176
 62 50 62 50 95 90 c 0,177,178
 125 127 125 127 152 154 c 0,158,159
311 85 m 0,179,180
 326 92 326 92 328 91 c 0,181,182
 334 87 334 87 339.5 46 c 128,-1,183
 345 5 345 5 340 -2 c 0,184,185
 337 -5 337 -5 324.5 -3.5 c 128,-1,186
 312 -2 312 -2 307 3 c 256,187,188
 302 8 302 8 304 27 c 0,189,190
 305 46 305 46 301 61 c 0,191,192
 297 75 297 75 297.5 76 c 128,-1,193
 298 77 298 77 311 85 c 0,179,180
EndSplineSet
Validated: 33
EndChar

StartChar: J
Encoding: 74 74 72
Width: 415
Flags: W
LayerCount: 2
Fore
SplineSet
189 227 m 1,0,-1
 159 123 l 1,1,-1
 128 227 l 1,2,-1
 25 257 l 1,3,-1
 128 288 l 1,4,-1
 159 393 l 1,5,-1
 189 288 l 1,6,-1
 294 257 l 1,7,-1
 189 227 l 1,0,-1
314 138 m 1,8,-1
 390 181 l 1,9,-1
 348 104 l 1,10,-1
 390 26 l 1,11,-1
 314 69 l 1,12,-1
 236 26 l 1,13,-1
 278 104 l 1,14,-1
 236 181 l 1,15,-1
 314 138 l 1,8,-1
178 104 m 1,16,-1
 146 46 l 1,17,-1
 178 -12 l 1,18,-1
 121 21 l 1,19,-1
 63 -12 l 1,20,-1
 95 46 l 1,21,-1
 63 104 l 1,22,-1
 121 71 l 1,23,-1
 178 104 l 1,16,-1
EndSplineSet
Validated: 1
EndChar

StartChar: L
Encoding: 76 76 73
Width: 418
Flags: W
LayerCount: 2
Fore
SplineSet
25 74 m 1,0,1
 69 43 69 43 163 43 c 128,-1,2
 257 43 257 43 301 74 c 1,3,-1
 301 43 l 2,4,5
 301 24 301 24 260 10.5 c 128,-1,6
 219 -3 219 -3 163 -3 c 128,-1,7
 107 -3 107 -3 66 10.5 c 128,-1,8
 25 24 25 24 25 43 c 2,9,-1
 25 74 l 1,0,1
255 273 m 128,-1,11
 199 273 199 273 158 287 c 128,-1,12
 117 301 117 301 117 319.5 c 128,-1,13
 117 338 117 338 158 351.5 c 128,-1,14
 199 365 199 365 255 365 c 128,-1,15
 311 365 311 365 352 351.5 c 128,-1,16
 393 338 393 338 393 319.5 c 128,-1,17
 393 301 393 301 352 287 c 128,-1,10
 311 273 311 273 255 273 c 128,-1,11
25 149 m 1,18,19
 47 131 47 131 84 121.5 c 128,-1,20
 121 112 121 112 163 112 c 0,21,22
 191 112 191 112 217 116 c 128,-1,23
 243 120 243 120 265 128.5 c 128,-1,24
 287 137 287 137 301 149 c 1,25,-1
 301 112 l 2,26,27
 301 93 301 93 260 79.5 c 128,-1,28
 219 66 219 66 163 66 c 128,-1,29
 107 66 107 66 66 79.5 c 128,-1,30
 25 93 25 93 25 112 c 2,31,-1
 25 149 l 1,18,19
325 141 m 1,32,-1
 325 187 l 1,33,34
 369 195 369 195 393 212 c 1,35,-1
 393 181 l 2,36,37
 393 175 393 175 388 169 c 128,-1,38
 383 163 383 163 374 157.5 c 128,-1,39
 365 152 365 152 353 148 c 128,-1,40
 341 144 341 144 325 141 c 1,32,-1
163 250 m 128,-1,42
 221 250 221 250 261 233 c 128,-1,43
 301 216 301 216 301 192.5 c 128,-1,44
 301 169 301 169 261 152 c 128,-1,45
 221 135 221 135 163 135 c 128,-1,46
 105 135 105 135 65 152 c 128,-1,47
 25 169 25 169 25 192.5 c 128,-1,48
 25 216 25 216 65 233 c 128,-1,41
 105 250 105 250 163 250 c 128,-1,42
321 210 m 1,49,50
 311 234 311 234 277 251 c 1,51,52
 357 254 357 254 393 281 c 1,53,-1
 393 250 l 2,54,55
 393 237 393 237 373 226.5 c 128,-1,56
 353 216 353 216 321 210 c 1,49,50
EndSplineSet
Validated: 1
EndChar

StartChar: M
Encoding: 77 77 74
Width: 434
Flags: W
LayerCount: 2
Fore
SplineSet
371 47 m 1,0,-1
 371 277 l 1,1,-1
 63 277 l 1,2,-1
 63 47 l 1,3,-1
 371 47 l 1,0,-1
371 354 m 2,4,5
 386 354 386 354 397.5 342.5 c 128,-1,6
 409 331 409 331 409 315 c 2,7,-1
 409 47 l 2,8,9
 409 31 409 31 397.5 19.5 c 128,-1,10
 386 8 386 8 371 8 c 2,11,-1
 63 8 l 2,12,13
 48 8 48 8 36.5 19.5 c 128,-1,14
 25 31 25 31 25 47 c 2,15,-1
 25 315 l 2,16,17
 25 331 25 331 36.5 342.5 c 128,-1,18
 48 354 48 354 63 354 c 2,19,-1
 371 354 l 2,4,5
236 85 m 1,20,-1
 236 123 l 1,21,-1
 332 123 l 1,22,-1
 332 85 l 1,23,-1
 236 85 l 1,20,-1
170 162 m 1,24,-1
 94 239 l 1,25,-1
 148 239 l 1,26,-1
 212 176 l 2,27,28
 217 169 217 169 217 161.5 c 128,-1,29
 217 154 217 154 212 148 c 2,30,-1
 149 85 l 1,31,-1
 94 85 l 1,32,-1
 170 162 l 1,24,-1
EndSplineSet
Validated: 1
EndChar
